<svg width="1280" height="400" viewBox="0 0 1280 400" fill="none" xmlns="http://www.w3.org/2000/svg">
<g clip-path="url(#clip0_44_2)">
<mask id="mask0_44_2" style="mask-type:luminance" maskUnits="userSpaceOnUse" x="0" y="0" width="1280" height="400">
<path d="M1280 0H0V400H1280V0Z" fill="white"/>
</mask>
<g mask="url(#mask0_44_2)">
<path d="M1280 0H0V400H1280V0Z" fill="#0A0A0A"/>
<path d="M40 0V400" stroke="#1DB483" stroke-opacity="0.06"/>
<path d="M80 0V400" stroke="#1DB483" stroke-opacity="0.06"/>
<path d="M120 0V400" stroke="#1DB483" stroke-opacity="0.06"/>
<path d="M160 0V400" stroke="#1DB483" stroke-opacity="0.06"/>
<path d="M200 0V400" stroke="#1DB483" stroke-opacity="0.06"/>
<path d="M240 0V400" stroke="#1DB483" stroke-opacity="0.06"/>
<path d="M280 0V400" stroke="#1DB483" stroke-opacity="0.06"/>
<path d="M320 0V400" stroke="#1DB483" stroke-opacity="0.06"/>
<path d="M360 0V400" stroke="#1DB483" stroke-opacity="0.06"/>
<path d="M400 0V400" stroke="#1DB483" stroke-opacity="0.06"/>
<path d="M440 0V400" stroke="#1DB483" stroke-opacity="0.06"/>
<path d="M480 0V400" stroke="#1DB483" stroke-opacity="0.06"/>
<path d="M520 0V400" stroke="#1DB483" stroke-opacity="0.06"/>
<path d="M560 0V400" stroke="#1DB483" stroke-opacity="0.06"/>
<path d="M600 0V400" stroke="#1DB483" stroke-opacity="0.06"/>
<path d="M640 0V400" stroke="#1DB483" stroke-opacity="0.06"/>
<path d="M680 0V400" stroke="#1DB483" stroke-opacity="0.06"/>
<path d="M720 0V400" stroke="#1DB483" stroke-opacity="0.06"/>
<path d="M760 0V400" stroke="#1DB483" stroke-opacity="0.06"/>
<path d="M800 0V400" stroke="#1DB483" stroke-opacity="0.06"/>
<path d="M840 0V400" stroke="#1DB483" stroke-opacity="0.06"/>
<path d="M880 0V400" stroke="#1DB483" stroke-opacity="0.06"/>
<path d="M920 0V400" stroke="#1DB483" stroke-opacity="0.06"/>
<path d="M960 0V400" stroke="#1DB483" stroke-opacity="0.06"/>
<path d="M1000 0V400" stroke="#1DB483" stroke-opacity="0.06"/>
<path d="M1040 0V400" stroke="#1DB483" stroke-opacity="0.06"/>
<path d="M1080 0V400" stroke="#1DB483" stroke-opacity="0.06"/>
<path d="M1120 0V400" stroke="#1DB483" stroke-opacity="0.06"/>
<path d="M1160 0V400" stroke="#1DB483" stroke-opacity="0.06"/>
<path d="M1200 0V400" stroke="#1DB483" stroke-opacity="0.06"/>
<path d="M1240 0V400" stroke="#1DB483" stroke-opacity="0.06"/>
<path d="M0 40H1280" stroke="#1DB483" stroke-opacity="0.06"/>
<path d="M0 80H1280" stroke="#1DB483" stroke-opacity="0.06"/>
<path d="M0 120H1280" stroke="#1DB483" stroke-opacity="0.06"/>
<path d="M0 160H1280" stroke="#1DB483" stroke-opacity="0.06"/>
<path d="M0 200H1280" stroke="#1DB483" stroke-opacity="0.06"/>
<path d="M0 240H1280" stroke="#1DB483" stroke-opacity="0.06"/>
<path d="M0 280H1280" stroke="#1DB483" stroke-opacity="0.06"/>
<path d="M0 320H1280" stroke="#1DB483" stroke-opacity="0.06"/>
<path d="M0 360H1280" stroke="#1DB483" stroke-opacity="0.06"/>
<path d="M600 0H0V400H600V0Z" fill="url(#paint0_radial_44_2)"/>
<path d="M1280 0H0V400H1280V0Z" fill="url(#paint1_linear_44_2)"/>
<path d="M128 116H88C79.1634 116 72 123.163 72 132V188C72 196.837 79.1634 204 88 204H128C136.837 204 144 196.837 144 188V132C144 123.163 136.837 116 128 116Z" fill="#1DB483" fill-opacity="0.1" stroke="#1DB483" stroke-opacity="0.35" stroke-width="1.5"/>
<path d="M132.005 138.618C134.745 140.741 134.745 185.335 132.005 187.458C129.265 189.582 126.525 191.705 126.525 191.705H119.675L118.305 190.643V173.21C118.305 173.21 112.825 173.895 110.085 173.895H105.975C103.235 173.895 97.755 173.21 97.755 173.21V190.643L96.385 191.705H89.535C89.535 191.705 86.7951 189.582 84.055 187.458C81.3149 185.335 81.3151 140.741 84.055 138.618C86.7949 136.494 97.755 128 97.755 128V159.51C97.755 159.51 103.235 160.195 105.975 160.195H110.085C112.825 160.195 118.305 159.51 118.305 159.51V128C118.305 128 129.265 136.494 132.005 138.618Z" fill="#1DB483"/>
<path d="M168.045 186V139.455H177.886V158.659H197.864V139.455H207.682V186H197.864V166.773H177.886V186H168.045ZM231.386 186.682C227.856 186.682 224.803 185.932 222.227 184.432C219.667 182.917 217.689 180.811 216.295 178.114C214.902 175.402 214.205 172.258 214.205 168.682C214.205 165.076 214.902 161.924 216.295 159.227C217.689 156.515 219.667 154.409 222.227 152.909C224.803 151.394 227.856 150.636 231.386 150.636C234.917 150.636 237.962 151.394 240.523 152.909C243.098 154.409 245.083 156.515 246.477 159.227C247.871 161.924 248.568 165.076 248.568 168.682C248.568 172.258 247.871 175.402 246.477 178.114C245.083 180.811 243.098 182.917 240.523 184.432C237.962 185.932 234.917 186.682 231.386 186.682ZM231.432 179.182C233.038 179.182 234.379 178.727 235.455 177.818C236.53 176.894 237.341 175.636 237.886 174.045C238.447 172.455 238.727 170.644 238.727 168.614C238.727 166.583 238.447 164.773 237.886 163.182C237.341 161.591 236.53 160.333 235.455 159.409C234.379 158.485 233.038 158.023 231.432 158.023C229.811 158.023 228.447 158.485 227.341 159.409C226.25 160.333 225.424 161.591 224.864 163.182C224.318 164.773 224.045 166.583 224.045 168.614C224.045 170.644 224.318 172.455 224.864 174.045C225.424 175.636 226.25 176.894 227.341 177.818C228.447 178.727 229.811 179.182 231.432 179.182ZM254.864 186V151.091H264.091V157.25H264.5C265.227 155.205 266.439 153.591 268.136 152.409C269.833 151.227 271.864 150.636 274.227 150.636C276.621 150.636 278.659 151.235 280.341 152.432C282.023 153.614 283.144 155.22 283.705 157.25H284.068C284.78 155.25 286.068 153.652 287.932 152.455C289.811 151.242 292.03 150.636 294.591 150.636C297.848 150.636 300.492 151.674 302.523 153.75C304.568 155.811 305.591 158.735 305.591 162.523V186H295.932V164.432C295.932 162.492 295.417 161.038 294.386 160.068C293.356 159.098 292.068 158.614 290.523 158.614C288.765 158.614 287.394 159.174 286.409 160.295C285.424 161.402 284.932 162.864 284.932 164.682V186H275.545V164.227C275.545 162.515 275.053 161.152 274.068 160.136C273.098 159.121 271.818 158.614 270.227 158.614C269.152 158.614 268.182 158.886 267.318 159.432C266.47 159.962 265.795 160.712 265.295 161.682C264.795 162.636 264.545 163.758 264.545 165.045V186H254.864ZM317.966 199.091C316.739 199.091 315.587 198.992 314.511 198.795C313.451 198.614 312.572 198.379 311.875 198.091L314.057 190.864C315.193 191.212 316.216 191.402 317.125 191.432C318.049 191.462 318.845 191.25 319.511 190.795C320.193 190.341 320.746 189.568 321.17 188.477L321.739 187L309.216 151.091H319.398L326.625 176.727H326.989L334.284 151.091H344.534L330.966 189.773C330.314 191.652 329.428 193.288 328.307 194.682C327.201 196.091 325.799 197.174 324.102 197.932C322.405 198.705 320.36 199.091 317.966 199.091Z" fill="white"/>
<path d="M146.333 328H79.667C75.985 328 73 330.239 73 333V351C73 353.761 75.985 356 79.667 356H146.333C150.015 356 153 353.761 153 351V333C153 330.239 150.015 328 146.333 328Z" fill="#1DB483" fill-opacity="0.1" stroke="#1DB483" stroke-opacity="0.3"/>
<path d="M263.355 328H175.645C171.975 328 169 330.239 169 333V351C169 353.761 171.975 356 175.645 356H263.355C267.025 356 270 353.761 270 351V333C270 330.239 267.025 328 263.355 328Z" fill="#1DB483" fill-opacity="0.1" stroke="#1DB483" stroke-opacity="0.3"/>
<path d="M201.79 347H198.872V337.545H201.919C202.836 337.545 203.621 337.735 204.274 338.113C204.926 338.489 205.426 339.029 205.774 339.734C206.122 340.435 206.296 341.276 206.296 342.254C206.296 343.239 206.12 344.087 205.769 344.798C205.419 345.506 204.908 346.051 204.237 346.432C203.566 346.811 202.75 347 201.79 347ZM200.017 345.984H201.716C202.498 345.984 203.146 345.834 203.66 345.532C204.174 345.23 204.557 344.801 204.809 344.244C205.062 343.687 205.188 343.024 205.188 342.254C205.188 341.491 205.063 340.834 204.814 340.283C204.565 339.729 204.192 339.304 203.697 339.009C203.201 338.71 202.584 338.561 201.845 338.561H200.017V345.984ZM210.949 347.148C210.309 347.148 209.747 346.995 209.264 346.691C208.784 346.386 208.409 345.96 208.138 345.412C207.87 344.864 207.736 344.224 207.736 343.491C207.736 342.753 207.87 342.108 208.138 341.557C208.409 341.006 208.784 340.578 209.264 340.274C209.747 339.969 210.309 339.817 210.949 339.817C211.589 339.817 212.149 339.969 212.63 340.274C213.113 340.578 213.488 341.006 213.756 341.557C214.027 342.108 214.162 342.753 214.162 343.491C214.162 344.224 214.027 344.864 213.756 345.412C213.488 345.96 213.113 346.386 212.63 346.691C212.149 346.995 211.589 347.148 210.949 347.148ZM210.949 346.169C211.435 346.169 211.835 346.044 212.149 345.795C212.463 345.546 212.696 345.218 212.847 344.812C212.997 344.406 213.073 343.965 213.073 343.491C213.073 343.018 212.997 342.576 212.847 342.167C212.696 341.757 212.463 341.426 212.149 341.174C211.835 340.922 211.435 340.795 210.949 340.795C210.463 340.795 210.063 340.922 209.749 341.174C209.435 341.426 209.203 341.757 209.052 342.167C208.901 342.576 208.826 343.018 208.826 343.491C208.826 343.965 208.901 344.406 209.052 344.812C209.203 345.218 209.435 345.546 209.749 345.795C210.063 346.044 210.463 346.169 210.949 346.169ZM218.706 347.148C218.041 347.148 217.469 346.991 216.989 346.677C216.509 346.363 216.139 345.931 215.881 345.38C215.622 344.829 215.493 344.199 215.493 343.491C215.493 342.771 215.625 342.136 215.89 341.585C216.158 341.031 216.53 340.598 217.007 340.288C217.487 339.974 218.047 339.817 218.688 339.817C219.186 339.817 219.635 339.909 220.036 340.094C220.436 340.278 220.763 340.537 221.019 340.869C221.274 341.202 221.433 341.589 221.494 342.033H220.405C220.322 341.71 220.137 341.423 219.851 341.174C219.568 340.922 219.186 340.795 218.706 340.795C218.281 340.795 217.909 340.906 217.589 341.128C217.272 341.346 217.024 341.656 216.846 342.056C216.67 342.453 216.582 342.919 216.582 343.455C216.582 344.002 216.669 344.479 216.841 344.886C217.016 345.292 217.263 345.607 217.58 345.832C217.9 346.057 218.275 346.169 218.706 346.169C218.989 346.169 219.246 346.12 219.477 346.021C219.708 345.923 219.903 345.781 220.063 345.597C220.223 345.412 220.337 345.19 220.405 344.932H221.494C221.433 345.35 221.28 345.727 221.037 346.063C220.797 346.395 220.479 346.66 220.082 346.857C219.688 347.051 219.229 347.148 218.706 347.148ZM224.103 344.415L224.084 343.067H224.306L227.408 339.909H228.756L225.451 343.251H225.358L224.103 344.415ZM223.087 347V337.545H224.176V347H223.087ZM227.593 347L224.823 343.491L225.598 342.734L228.978 347H227.593ZM232.839 347.148C232.156 347.148 231.567 346.997 231.071 346.695C230.579 346.391 230.199 345.966 229.931 345.421C229.666 344.873 229.534 344.236 229.534 343.51C229.534 342.784 229.666 342.143 229.931 341.589C230.199 341.032 230.571 340.598 231.048 340.288C231.528 339.974 232.088 339.817 232.729 339.817C233.098 339.817 233.463 339.878 233.823 340.001C234.183 340.125 234.51 340.325 234.806 340.602C235.101 340.875 235.337 341.239 235.512 341.691C235.688 342.143 235.775 342.701 235.775 343.362V343.824H230.309V342.882H234.667C234.667 342.482 234.587 342.125 234.427 341.811C234.27 341.497 234.046 341.249 233.753 341.068C233.464 340.886 233.122 340.795 232.729 340.795C232.295 340.795 231.919 340.903 231.602 341.119C231.288 341.331 231.047 341.608 230.877 341.95C230.708 342.291 230.623 342.657 230.623 343.048V343.676C230.623 344.212 230.716 344.666 230.9 345.038C231.088 345.407 231.348 345.689 231.681 345.883C232.013 346.074 232.399 346.169 232.839 346.169C233.126 346.169 233.384 346.129 233.615 346.049C233.849 345.966 234.05 345.843 234.22 345.68C234.389 345.513 234.52 345.307 234.612 345.061L235.665 345.357C235.554 345.714 235.368 346.027 235.106 346.298C234.844 346.566 234.521 346.775 234.137 346.926C233.752 347.074 233.319 347.148 232.839 347.148ZM237.433 347V339.909H238.485V340.98H238.559C238.688 340.629 238.922 340.345 239.261 340.126C239.599 339.908 239.981 339.798 240.406 339.798C240.486 339.798 240.586 339.8 240.706 339.803C240.826 339.806 240.917 339.811 240.978 339.817V340.925C240.941 340.915 240.857 340.902 240.724 340.883C240.595 340.862 240.458 340.851 240.313 340.851C239.969 340.851 239.661 340.923 239.39 341.068C239.122 341.209 238.91 341.406 238.753 341.659C238.599 341.908 238.522 342.193 238.522 342.513V347H237.433Z" fill="#1DB483"/>
<path d="M402.315 328H292.685C288.993 328 286 330.239 286 333V351C286 353.761 288.993 356 292.685 356H402.315C406.007 356 409 353.761 409 351V333C409 330.239 406.007 328 402.315 328Z" fill="#1DB483" fill-opacity="0.1" stroke="#1DB483" stroke-opacity="0.3"/>
<path d="M319.459 347H318.259L321.73 337.545H322.912L326.384 347H325.183L322.358 339.041H322.284L319.459 347ZM319.902 343.307H324.74V344.322H319.902V343.307ZM329.001 337.545V347H327.856V337.545H329.001ZM335.341 347H334.14L337.612 337.545H338.794L342.265 347H341.065L338.24 339.041H338.166L335.341 347ZM335.784 343.307H340.622V344.322H335.784V343.307ZM346.453 349.807C345.926 349.807 345.474 349.739 345.095 349.604C344.717 349.471 344.401 349.296 344.149 349.077C343.9 348.862 343.701 348.631 343.553 348.385L344.421 347.776C344.52 347.905 344.645 348.053 344.795 348.219C344.946 348.388 345.152 348.534 345.414 348.657C345.679 348.783 346.025 348.847 346.453 348.847C347.025 348.847 347.497 348.708 347.87 348.431C348.242 348.154 348.428 347.72 348.428 347.129V345.689H348.336C348.256 345.818 348.142 345.978 347.995 346.169C347.85 346.357 347.641 346.525 347.367 346.672C347.096 346.817 346.73 346.889 346.268 346.889C345.696 346.889 345.182 346.754 344.726 346.483C344.274 346.212 343.915 345.818 343.65 345.301C343.389 344.784 343.258 344.156 343.258 343.418C343.258 342.691 343.386 342.059 343.641 341.52C343.897 340.979 344.252 340.56 344.708 340.265C345.163 339.966 345.689 339.817 346.286 339.817C346.748 339.817 347.114 339.894 347.385 340.048C347.659 340.198 347.868 340.371 348.013 340.565C348.161 340.755 348.275 340.912 348.355 341.036H348.465V339.909H349.518V347.203C349.518 347.812 349.379 348.308 349.102 348.69C348.829 349.074 348.459 349.356 347.995 349.534C347.533 349.716 347.019 349.807 346.453 349.807ZM346.416 345.911C346.853 345.911 347.222 345.81 347.524 345.61C347.825 345.41 348.055 345.123 348.212 344.747C348.368 344.372 348.447 343.922 348.447 343.399C348.447 342.888 348.37 342.437 348.216 342.047C348.062 341.656 347.835 341.349 347.533 341.128C347.231 340.906 346.859 340.795 346.416 340.795C345.954 340.795 345.569 340.912 345.262 341.146C344.957 341.38 344.728 341.694 344.574 342.088C344.423 342.482 344.348 342.919 344.348 343.399C344.348 343.892 344.424 344.327 344.578 344.706C344.735 345.081 344.966 345.377 345.271 345.592C345.579 345.804 345.96 345.911 346.416 345.911ZM354.485 347.148C353.802 347.148 353.213 346.997 352.717 346.695C352.225 346.391 351.845 345.966 351.577 345.421C351.312 344.873 351.18 344.236 351.18 343.51C351.18 342.784 351.312 342.143 351.577 341.589C351.845 341.032 352.217 340.598 352.694 340.288C353.174 339.974 353.734 339.817 354.375 339.817C354.744 339.817 355.109 339.878 355.469 340.001C355.829 340.125 356.156 340.325 356.452 340.602C356.747 340.875 356.983 341.239 357.158 341.691C357.334 342.143 357.421 342.701 357.421 343.362V343.824H351.955V342.882H356.313C356.313 342.482 356.233 342.125 356.073 341.811C355.916 341.497 355.692 341.249 355.399 341.068C355.11 340.886 354.768 340.795 354.375 340.795C353.941 340.795 353.565 340.903 353.248 341.119C352.934 341.331 352.693 341.608 352.523 341.95C352.354 342.291 352.269 342.657 352.269 343.048V343.676C352.269 344.212 352.362 344.666 352.546 345.038C352.734 345.407 352.994 345.689 353.327 345.883C353.659 346.074 354.045 346.169 354.485 346.169C354.772 346.169 355.03 346.129 355.261 346.049C355.495 345.966 355.696 345.843 355.866 345.68C356.035 345.513 356.166 345.307 356.258 345.061L357.311 345.357C357.2 345.714 357.014 346.027 356.752 346.298C356.49 346.566 356.167 346.775 355.783 346.926C355.398 347.074 354.965 347.148 354.485 347.148ZM360.168 342.734V347H359.079V339.909H360.131V341.017H360.224C360.39 340.657 360.642 340.368 360.981 340.149C361.319 339.928 361.756 339.817 362.292 339.817C362.772 339.817 363.192 339.915 363.552 340.112C363.912 340.306 364.192 340.602 364.392 340.999C364.592 341.393 364.692 341.891 364.692 342.494V347H363.603V342.568C363.603 342.011 363.458 341.577 363.169 341.266C362.88 340.952 362.483 340.795 361.978 340.795C361.63 340.795 361.319 340.871 361.045 341.022C360.774 341.172 360.561 341.393 360.404 341.682C360.247 341.971 360.168 342.322 360.168 342.734ZM369.767 339.909V340.832H366.092V339.909H369.767ZM367.163 338.21H368.253V344.969C368.253 345.277 368.297 345.507 368.387 345.661C368.479 345.812 368.596 345.914 368.738 345.966C368.882 346.015 369.035 346.04 369.195 346.04C369.315 346.04 369.413 346.034 369.49 346.021C369.567 346.006 369.629 345.994 369.675 345.984L369.896 346.963C369.822 346.991 369.719 347.018 369.587 347.046C369.455 347.077 369.287 347.092 369.084 347.092C368.776 347.092 368.474 347.026 368.179 346.894C367.887 346.761 367.643 346.56 367.45 346.289C367.259 346.018 367.163 345.677 367.163 345.264V338.21ZM376.302 341.497L375.323 341.774C375.261 341.611 375.171 341.453 375.051 341.299C374.934 341.142 374.774 341.012 374.57 340.911C374.367 340.809 374.107 340.759 373.79 340.759C373.356 340.759 372.995 340.859 372.705 341.059C372.419 341.256 372.276 341.506 372.276 341.811C372.276 342.082 372.375 342.296 372.572 342.453C372.768 342.61 373.076 342.741 373.495 342.845L374.547 343.104C375.181 343.258 375.654 343.493 375.965 343.81C376.275 344.124 376.431 344.529 376.431 345.024C376.431 345.43 376.314 345.794 376.08 346.114C375.849 346.434 375.526 346.686 375.111 346.871C374.695 347.055 374.212 347.148 373.661 347.148C372.938 347.148 372.339 346.991 371.865 346.677C371.391 346.363 371.091 345.904 370.965 345.301L371.999 345.043C372.098 345.424 372.284 345.71 372.558 345.901C372.835 346.092 373.196 346.188 373.643 346.188C374.15 346.188 374.554 346.08 374.852 345.864C375.154 345.646 375.304 345.384 375.304 345.08C375.304 344.833 375.218 344.627 375.046 344.461C374.874 344.292 374.609 344.165 374.252 344.082L373.07 343.805C372.421 343.652 371.944 343.413 371.639 343.09C371.337 342.764 371.187 342.356 371.187 341.866C371.187 341.466 371.299 341.112 371.524 340.805C371.751 340.497 372.061 340.255 372.451 340.08C372.845 339.904 373.292 339.817 373.79 339.817C374.492 339.817 375.043 339.971 375.443 340.278C375.846 340.586 376.132 340.992 376.302 341.497Z" fill="#1DB483"/>
<path d="M1194 52H746C738.268 52 732 58.268 732 66V350C732 357.732 738.268 364 746 364H1194C1201.73 364 1208 357.732 1208 350V66C1208 58.268 1201.73 52 1194 52Z" fill="black" fill-opacity="0.5"/>
<path d="M1188 44H736C729.373 44 724 49.3726 724 56V344C724 350.627 729.373 356 736 356H1188C1194.63 356 1200 350.627 1200 344V56C1200 49.3726 1194.63 44 1188 44Z" fill="#111111" stroke="white" stroke-opacity="0.07"/>
<path d="M768 44H724V356H768V44Z" fill="#0D0D0D"/>
<path d="M756 44H736C729.373 44 724 49.3726 724 56V344C724 350.627 729.373 356 736 356H756C762.627 356 768 350.627 768 344V56C768 49.3726 762.627 44 756 44Z" fill="#0D0D0D"/>
<path d="M768 44H750V356H768V44Z" fill="#0D0D0D"/>
<path d="M768 44H767V356H768V44Z" fill="white" fill-opacity="0.05"/>
<path d="M750 68H738C735.239 68 733 70.2386 733 73V85C733 87.7614 735.239 90 738 90H750C752.761 90 755 87.7614 755 85V73C755 70.2386 752.761 68 750 68Z" fill="#1DB483" fill-opacity="0.3" stroke="#1DB483" stroke-opacity="0.5"/>
<path d="M750 100H738C735.239 100 733 102.239 733 105V117C733 119.761 735.239 122 738 122H750C752.761 122 755 119.761 755 117V105C755 102.239 752.761 100 750 100Z" fill="white" fill-opacity="0.06"/>
<path d="M750 132H738C735.239 132 733 134.239 733 137V149C733 151.761 735.239 154 738 154H750C752.761 154 755 151.761 755 149V137C755 134.239 752.761 132 750 132Z" fill="white" fill-opacity="0.06"/>
<path d="M750 164H738C735.239 164 733 166.239 733 169V181C733 183.761 735.239 186 738 186H750C752.761 186 755 183.761 755 181V169C755 166.239 752.761 164 750 164Z" fill="white" fill-opacity="0.06"/>
<path d="M750 196H738C735.239 196 733 198.239 733 201V213C733 215.761 735.239 218 738 218H750C752.761 218 755 215.761 755 213V201C755 198.239 752.761 196 750 196Z" fill="white" fill-opacity="0.06"/>
<path d="M750 228H738C735.239 228 733 230.239 733 233V245C733 247.761 735.239 250 738 250H750C752.761 250 755 247.761 755 245V233C755 230.239 752.761 228 750 228Z" fill="white" fill-opacity="0.06"/>
<path d="M1200 44H768V78H1200V44Z" fill="#0D0D0D"/>
<path d="M1200 77H768V78H1200V77Z" fill="white" fill-opacity="0.05"/>
<path d="M784 66C786.761 66 789 63.7614 789 61C789 58.2386 786.761 56 784 56C781.239 56 779 58.2386 779 61C779 63.7614 781.239 66 784 66Z" fill="#1DB483" fill-opacity="0.7"/>
<path d="M800 66C802.761 66 805 63.7614 805 61C805 58.2386 802.761 56 800 56C797.239 56 795 58.2386 795 61C795 63.7614 797.239 66 800 66Z" fill="white" fill-opacity="0.1"/>
<path d="M816 66C818.761 66 821 63.7614 821 61C821 58.2386 818.761 56 816 56C813.239 56 811 58.2386 811 61C811 63.7614 813.239 66 816 66Z" fill="white" fill-opacity="0.1"/>
<path d="M964 88H782C778.686 88 776 90.6863 776 94V146C776 149.314 778.686 152 782 152H964C967.314 152 970 149.314 970 146V94C970 90.6863 967.314 88 964 88Z" fill="#1DB483" fill-opacity="0.05" stroke="#1DB483" stroke-opacity="0.2"/>
<path d="M792.609 110.141C792.229 110.141 791.884 110.069 791.574 109.926C791.264 109.78 791.018 109.57 790.836 109.297C790.654 109.021 790.563 108.687 790.563 108.297C790.563 107.953 790.63 107.674 790.766 107.461C790.901 107.245 791.082 107.076 791.309 106.953C791.535 106.831 791.785 106.74 792.059 106.68C792.335 106.617 792.612 106.568 792.891 106.531C793.255 106.484 793.551 106.449 793.777 106.426C794.007 106.4 794.173 106.357 794.277 106.297C794.384 106.237 794.438 106.133 794.438 105.984V105.953C794.438 105.568 794.332 105.268 794.121 105.055C793.913 104.841 793.596 104.734 793.172 104.734C792.732 104.734 792.387 104.831 792.137 105.023C791.887 105.216 791.711 105.422 791.609 105.641L790.734 105.328C790.891 104.964 791.099 104.68 791.359 104.477C791.622 104.271 791.909 104.128 792.219 104.047C792.531 103.964 792.839 103.922 793.141 103.922C793.333 103.922 793.555 103.945 793.805 103.992C794.057 104.036 794.301 104.129 794.535 104.27C794.772 104.41 794.969 104.622 795.125 104.906C795.281 105.19 795.359 105.57 795.359 106.047V110H794.438V109.187H794.391C794.328 109.318 794.224 109.457 794.078 109.605C793.932 109.754 793.738 109.88 793.496 109.984C793.254 110.089 792.958 110.141 792.609 110.141ZM792.75 109.312C793.115 109.312 793.422 109.241 793.672 109.098C793.924 108.954 794.115 108.77 794.242 108.543C794.372 108.316 794.438 108.078 794.438 107.828V106.984C794.398 107.031 794.313 107.074 794.18 107.113C794.049 107.15 793.898 107.182 793.727 107.211C793.557 107.237 793.392 107.26 793.23 107.281C793.072 107.299 792.943 107.315 792.844 107.328C792.604 107.359 792.38 107.41 792.172 107.48C791.966 107.548 791.799 107.651 791.672 107.789C791.547 107.924 791.484 108.109 791.484 108.344C791.484 108.664 791.603 108.906 791.84 109.07C792.079 109.232 792.383 109.312 792.75 109.312ZM797.042 110V104H797.933V104.906H797.995C798.104 104.609 798.302 104.368 798.589 104.184C798.875 103.999 799.198 103.906 799.558 103.906C799.625 103.906 799.71 103.908 799.812 103.91C799.913 103.913 799.99 103.917 800.042 103.922V104.859C800.011 104.852 799.939 104.84 799.827 104.824C799.718 104.806 799.602 104.797 799.479 104.797C799.188 104.797 798.927 104.858 798.698 104.98C798.472 105.1 798.292 105.267 798.159 105.48C798.029 105.691 797.964 105.932 797.964 106.203V110H797.042ZM804.12 104V104.781H801.011V104H804.12ZM801.917 102.562H802.839V108.281C802.839 108.542 802.877 108.737 802.952 108.867C803.03 108.995 803.129 109.081 803.249 109.125C803.371 109.167 803.5 109.187 803.636 109.187C803.737 109.187 803.821 109.182 803.886 109.172C803.951 109.159 804.003 109.148 804.042 109.141L804.229 109.969C804.167 109.992 804.08 110.016 803.968 110.039C803.856 110.065 803.714 110.078 803.542 110.078C803.282 110.078 803.026 110.022 802.776 109.91C802.529 109.798 802.323 109.628 802.159 109.398C801.998 109.169 801.917 108.88 801.917 108.531V102.562ZM805.507 110V104H806.429V110H805.507ZM805.976 103C805.796 103 805.641 102.939 805.511 102.816C805.383 102.694 805.319 102.547 805.319 102.375C805.319 102.203 805.383 102.056 805.511 101.934C805.641 101.811 805.796 101.75 805.976 101.75C806.155 101.75 806.309 101.811 806.437 101.934C806.567 102.056 806.632 102.203 806.632 102.375C806.632 102.547 806.567 102.694 806.437 102.816C806.309 102.939 806.155 103 805.976 103ZM810.555 110.125C809.992 110.125 809.508 109.992 809.102 109.727C808.695 109.461 808.383 109.095 808.164 108.629C807.945 108.163 807.836 107.63 807.836 107.031C807.836 106.422 807.948 105.884 808.172 105.418C808.398 104.949 808.714 104.583 809.117 104.32C809.523 104.055 809.997 103.922 810.539 103.922C810.961 103.922 811.341 104 811.68 104.156C812.018 104.312 812.296 104.531 812.512 104.812C812.728 105.094 812.862 105.422 812.914 105.797H811.992C811.922 105.523 811.766 105.281 811.523 105.07C811.284 104.857 810.961 104.75 810.555 104.75C810.195 104.75 809.88 104.844 809.609 105.031C809.341 105.216 809.132 105.478 808.98 105.816C808.832 106.152 808.758 106.547 808.758 107C808.758 107.464 808.831 107.867 808.977 108.211C809.125 108.555 809.333 108.822 809.602 109.012C809.872 109.202 810.19 109.297 810.555 109.297C810.794 109.297 811.012 109.255 811.207 109.172C811.402 109.089 811.568 108.969 811.703 108.812C811.839 108.656 811.935 108.469 811.992 108.25H812.914C812.862 108.604 812.733 108.923 812.527 109.207C812.324 109.488 812.055 109.712 811.719 109.879C811.385 110.043 810.997 110.125 810.555 110.125ZM815.184 102V110H814.262V102H815.184ZM819.388 110.125C818.81 110.125 818.311 109.997 817.892 109.742C817.475 109.484 817.153 109.125 816.927 108.664C816.703 108.201 816.591 107.661 816.591 107.047C816.591 106.432 816.703 105.891 816.927 105.422C817.153 104.951 817.468 104.583 817.872 104.32C818.278 104.055 818.752 103.922 819.294 103.922C819.606 103.922 819.915 103.974 820.22 104.078C820.524 104.182 820.802 104.352 821.052 104.586C821.302 104.818 821.501 105.125 821.649 105.508C821.798 105.891 821.872 106.362 821.872 106.922V107.312H817.247V106.516H820.935C820.935 106.177 820.867 105.875 820.731 105.609C820.599 105.344 820.409 105.134 820.161 104.98C819.916 104.827 819.627 104.75 819.294 104.75C818.927 104.75 818.609 104.841 818.341 105.023C818.075 105.203 817.871 105.437 817.728 105.727C817.584 106.016 817.513 106.326 817.513 106.656V107.188C817.513 107.641 817.591 108.025 817.747 108.34C817.906 108.652 818.126 108.891 818.407 109.055C818.688 109.216 819.015 109.297 819.388 109.297C819.63 109.297 819.849 109.263 820.044 109.195C820.242 109.125 820.412 109.021 820.556 108.883C820.699 108.742 820.81 108.568 820.888 108.359L821.778 108.609C821.685 108.911 821.527 109.177 821.306 109.406C821.084 109.633 820.811 109.81 820.485 109.937C820.16 110.063 819.794 110.125 819.388 110.125ZM827.524 105.344L826.696 105.578C826.644 105.44 826.567 105.306 826.466 105.176C826.367 105.043 826.231 104.934 826.06 104.848C825.888 104.762 825.668 104.719 825.399 104.719C825.032 104.719 824.726 104.803 824.481 104.973C824.239 105.139 824.118 105.352 824.118 105.609C824.118 105.839 824.201 106.02 824.368 106.152C824.535 106.285 824.795 106.396 825.149 106.484L826.04 106.703C826.576 106.833 826.976 107.033 827.239 107.301C827.502 107.566 827.634 107.909 827.634 108.328C827.634 108.672 827.535 108.979 827.337 109.25C827.142 109.521 826.868 109.734 826.517 109.891C826.165 110.047 825.756 110.125 825.29 110.125C824.678 110.125 824.172 109.992 823.771 109.727C823.369 109.461 823.116 109.073 823.009 108.562L823.884 108.344C823.967 108.667 824.125 108.909 824.356 109.07C824.591 109.232 824.897 109.312 825.274 109.312C825.704 109.312 826.045 109.221 826.298 109.039C826.553 108.854 826.681 108.633 826.681 108.375C826.681 108.167 826.608 107.992 826.462 107.852C826.316 107.708 826.092 107.602 825.79 107.531L824.79 107.297C824.241 107.167 823.837 106.965 823.579 106.691C823.324 106.415 823.196 106.07 823.196 105.656C823.196 105.318 823.291 105.018 823.481 104.758C823.674 104.497 823.936 104.293 824.267 104.145C824.6 103.996 824.978 103.922 825.399 103.922C825.993 103.922 826.459 104.052 826.798 104.312C827.139 104.573 827.381 104.917 827.524 105.344ZM834.725 104V104.781H831.615V104H834.725ZM832.521 102.562H833.443V108.281C833.443 108.542 833.481 108.737 833.557 108.867C833.635 108.995 833.734 109.081 833.854 109.125C833.976 109.167 834.105 109.187 834.24 109.187C834.342 109.187 834.425 109.182 834.49 109.172C834.555 109.159 834.607 109.148 834.646 109.141L834.834 109.969C834.771 109.992 834.684 110.016 834.572 110.039C834.46 110.065 834.318 110.078 834.146 110.078C833.886 110.078 833.631 110.022 833.381 109.91C833.133 109.798 832.928 109.628 832.764 109.398C832.602 109.169 832.521 108.88 832.521 108.531V102.562ZM838.484 110.125C837.943 110.125 837.467 109.996 837.059 109.738C836.652 109.48 836.335 109.12 836.105 108.656C835.879 108.193 835.766 107.651 835.766 107.031C835.766 106.406 835.879 105.861 836.105 105.395C836.335 104.928 836.652 104.566 837.059 104.309C837.467 104.051 837.943 103.922 838.484 103.922C839.026 103.922 839.5 104.051 839.906 104.309C840.315 104.566 840.633 104.928 840.859 105.395C841.089 105.861 841.203 106.406 841.203 107.031C841.203 107.651 841.089 108.193 840.859 108.656C840.633 109.12 840.315 109.48 839.906 109.738C839.5 109.996 839.026 110.125 838.484 110.125ZM838.484 109.297C838.896 109.297 839.234 109.191 839.5 108.98C839.766 108.77 839.962 108.492 840.09 108.148C840.217 107.805 840.281 107.432 840.281 107.031C840.281 106.63 840.217 106.257 840.09 105.91C839.962 105.564 839.766 105.284 839.5 105.07C839.234 104.857 838.896 104.75 838.484 104.75C838.073 104.75 837.734 104.857 837.469 105.07C837.203 105.284 837.007 105.564 836.879 105.91C836.751 106.257 836.688 106.63 836.688 107.031C836.688 107.432 836.751 107.805 836.879 108.148C837.007 108.492 837.203 108.77 837.469 108.98C837.734 109.191 838.073 109.297 838.484 109.297ZM844.876 110.125C844.376 110.125 843.935 109.999 843.552 109.746C843.169 109.491 842.869 109.132 842.653 108.668C842.437 108.202 842.329 107.651 842.329 107.016C842.329 106.385 842.437 105.839 842.653 105.375C842.869 104.911 843.17 104.553 843.556 104.301C843.941 104.048 844.386 103.922 844.892 103.922C845.282 103.922 845.591 103.987 845.817 104.117C846.047 104.245 846.221 104.391 846.341 104.555C846.463 104.716 846.558 104.849 846.626 104.953H846.704V102H847.626V110H846.735V109.078H846.626C846.558 109.187 846.462 109.326 846.337 109.492C846.212 109.656 846.034 109.803 845.802 109.934C845.57 110.061 845.261 110.125 844.876 110.125ZM845.001 109.297C845.371 109.297 845.683 109.201 845.938 109.008C846.194 108.812 846.388 108.543 846.521 108.199C846.653 107.853 846.72 107.453 846.72 107C846.72 106.552 846.655 106.16 846.524 105.824C846.394 105.486 846.201 105.223 845.946 105.035C845.691 104.845 845.376 104.75 845.001 104.75C844.61 104.75 844.285 104.85 844.024 105.051C843.767 105.249 843.573 105.518 843.442 105.859C843.315 106.198 843.251 106.578 843.251 107C843.251 107.427 843.316 107.815 843.446 108.164C843.579 108.51 843.774 108.786 844.032 108.992C844.293 109.195 844.616 109.297 845.001 109.297ZM851.208 110.141C850.828 110.141 850.483 110.069 850.173 109.926C849.863 109.78 849.617 109.57 849.435 109.297C849.252 109.021 849.161 108.687 849.161 108.297C849.161 107.953 849.229 107.674 849.364 107.461C849.5 107.245 849.681 107.076 849.907 106.953C850.134 106.831 850.384 106.74 850.657 106.68C850.933 106.617 851.211 106.568 851.489 106.531C851.854 106.484 852.149 106.449 852.376 106.426C852.605 106.4 852.772 106.357 852.876 106.297C852.983 106.237 853.036 106.133 853.036 105.984V105.953C853.036 105.568 852.931 105.268 852.72 105.055C852.511 104.841 852.195 104.734 851.771 104.734C851.33 104.734 850.985 104.831 850.735 105.023C850.485 105.216 850.31 105.422 850.208 105.641L849.333 105.328C849.489 104.964 849.698 104.68 849.958 104.477C850.221 104.271 850.507 104.128 850.817 104.047C851.13 103.964 851.437 103.922 851.739 103.922C851.932 103.922 852.153 103.945 852.403 103.992C852.656 104.036 852.899 104.129 853.134 104.27C853.371 104.41 853.567 104.622 853.724 104.906C853.88 105.19 853.958 105.57 853.958 106.047V110H853.036V109.187H852.989C852.927 109.318 852.823 109.457 852.677 109.605C852.531 109.754 852.337 109.88 852.095 109.984C851.853 110.089 851.557 110.141 851.208 110.141ZM851.349 109.312C851.713 109.312 852.021 109.241 852.271 109.098C852.523 108.954 852.713 108.77 852.841 108.543C852.971 108.316 853.036 108.078 853.036 107.828V106.984C852.997 107.031 852.911 107.074 852.778 107.113C852.648 107.15 852.497 107.182 852.325 107.211C852.156 107.237 851.991 107.26 851.829 107.281C851.67 107.299 851.541 107.315 851.442 107.328C851.203 107.359 850.979 107.41 850.771 107.48C850.565 107.548 850.398 107.651 850.271 107.789C850.146 107.924 850.083 108.109 850.083 108.344C850.083 108.664 850.201 108.906 850.438 109.07C850.678 109.232 850.981 109.312 851.349 109.312ZM856.02 112.25C855.863 112.25 855.724 112.237 855.602 112.211C855.479 112.188 855.395 112.164 855.348 112.141L855.582 111.328C855.806 111.385 856.004 111.406 856.176 111.391C856.348 111.375 856.5 111.298 856.633 111.16C856.768 111.025 856.892 110.805 857.004 110.5L857.176 110.031L854.957 104H855.957L857.613 108.781H857.676L859.332 104H860.332L857.785 110.875C857.671 111.185 857.529 111.441 857.359 111.645C857.19 111.85 856.993 112.003 856.77 112.102C856.548 112.201 856.298 112.25 856.02 112.25Z" fill="white" fill-opacity="0.35"/>
<path d="M791.246 135.676V132.528L799.141 120.091H801.855V124.449H800.249L795.272 132.325V132.472H806.49V135.676H791.246ZM800.322 139V134.716L800.396 133.322V120.091H804.145V139H800.322ZM809.902 139L817.74 123.489V123.359H808.609V120.091H821.877V123.406L814.029 139H809.902Z" fill="#1DB483"/>
<path d="M1168 88H986C982.686 88 980 90.6863 980 94V146C980 149.314 982.686 152 986 152H1168C1171.31 152 1174 149.314 1174 146V94C1174 90.6863 1171.31 88 1168 88Z" fill="white" fill-opacity="0.03" stroke="white" stroke-opacity="0.06"/>
<path d="M994.844 112.25V104H995.734V104.953H995.844C995.911 104.849 996.005 104.716 996.125 104.555C996.247 104.391 996.422 104.245 996.648 104.117C996.878 103.987 997.188 103.922 997.578 103.922C998.083 103.922 998.529 104.048 998.914 104.301C999.299 104.553 999.6 104.911 999.816 105.375C1000.03 105.839 1000.14 106.385 1000.14 107.016C1000.14 107.651 1000.03 108.202 999.816 108.668C999.6 109.132 999.301 109.491 998.918 109.746C998.535 109.999 998.094 110.125 997.594 110.125C997.208 110.125 996.9 110.061 996.668 109.934C996.436 109.803 996.258 109.656 996.133 109.492C996.008 109.326 995.911 109.187 995.844 109.078H995.766V112.25H994.844ZM995.75 107C995.75 107.453 995.816 107.853 995.949 108.199C996.082 108.543 996.276 108.812 996.531 109.008C996.786 109.201 997.099 109.297 997.469 109.297C997.854 109.297 998.176 109.195 998.434 108.992C998.694 108.786 998.889 108.51 999.02 108.164C999.152 107.815 999.219 107.427 999.219 107C999.219 106.578 999.154 106.198 999.023 105.859C998.896 105.518 998.702 105.249 998.441 105.051C998.184 104.85 997.859 104.75 997.469 104.75C997.094 104.75 996.779 104.845 996.523 105.035C996.268 105.223 996.076 105.486 995.945 105.824C995.815 106.16 995.75 106.552 995.75 107ZM1003.98 110.125C1003.44 110.125 1002.97 109.996 1002.56 109.738C1002.15 109.48 1001.83 109.12 1001.61 108.656C1001.38 108.193 1001.27 107.651 1001.27 107.031C1001.27 106.406 1001.38 105.861 1001.61 105.395C1001.83 104.928 1002.15 104.566 1002.56 104.309C1002.97 104.051 1003.44 103.922 1003.98 103.922C1004.53 103.922 1005 104.051 1005.41 104.309C1005.82 104.566 1006.13 104.928 1006.36 105.395C1006.59 105.861 1006.7 106.406 1006.7 107.031C1006.7 107.651 1006.59 108.193 1006.36 108.656C1006.13 109.12 1005.82 109.48 1005.41 109.738C1005 109.996 1004.53 110.125 1003.98 110.125ZM1003.98 109.297C1004.4 109.297 1004.73 109.191 1005 108.98C1005.27 108.77 1005.46 108.492 1005.59 108.148C1005.72 107.805 1005.78 107.432 1005.78 107.031C1005.78 106.63 1005.72 106.257 1005.59 105.91C1005.46 105.564 1005.27 105.284 1005 105.07C1004.73 104.857 1004.4 104.75 1003.98 104.75C1003.57 104.75 1003.23 104.857 1002.97 105.07C1002.7 105.284 1002.51 105.564 1002.38 105.91C1002.25 106.257 1002.19 106.63 1002.19 107.031C1002.19 107.432 1002.25 107.805 1002.38 108.148C1002.51 108.492 1002.7 108.77 1002.97 108.98C1003.23 109.191 1003.57 109.297 1003.98 109.297ZM1012.36 105.344L1011.53 105.578C1011.48 105.44 1011.4 105.306 1011.3 105.176C1011.2 105.043 1011.07 104.934 1010.9 104.848C1010.72 104.762 1010.5 104.719 1010.24 104.719C1009.87 104.719 1009.56 104.803 1009.32 104.973C1009.08 105.139 1008.95 105.352 1008.95 105.609C1008.95 105.839 1009.04 106.02 1009.2 106.152C1009.37 106.285 1009.63 106.396 1009.99 106.484L1010.88 106.703C1011.41 106.833 1011.81 107.033 1012.08 107.301C1012.34 107.566 1012.47 107.909 1012.47 108.328C1012.47 108.672 1012.37 108.979 1012.17 109.25C1011.98 109.521 1011.7 109.734 1011.35 109.891C1011 110.047 1010.59 110.125 1010.13 110.125C1009.51 110.125 1009.01 109.992 1008.61 109.727C1008.21 109.461 1007.95 109.073 1007.84 108.562L1008.72 108.344C1008.8 108.667 1008.96 108.909 1009.19 109.07C1009.43 109.232 1009.73 109.312 1010.11 109.312C1010.54 109.312 1010.88 109.221 1011.13 109.039C1011.39 108.854 1011.52 108.633 1011.52 108.375C1011.52 108.167 1011.44 107.992 1011.3 107.852C1011.15 107.708 1010.93 107.602 1010.63 107.531L1009.63 107.297C1009.08 107.167 1008.67 106.965 1008.42 106.691C1008.16 106.415 1008.03 106.07 1008.03 105.656C1008.03 105.318 1008.13 105.018 1008.32 104.758C1008.51 104.497 1008.77 104.293 1009.1 104.145C1009.44 103.996 1009.81 103.922 1010.24 103.922C1010.83 103.922 1011.3 104.052 1011.63 104.312C1011.97 104.573 1012.22 104.917 1012.36 105.344ZM1016.47 104V104.781H1013.36V104H1016.47ZM1014.26 102.562H1015.19V108.281C1015.19 108.542 1015.22 108.737 1015.3 108.867C1015.38 108.995 1015.48 109.081 1015.6 109.125C1015.72 109.167 1015.85 109.187 1015.98 109.187C1016.08 109.187 1016.17 109.182 1016.23 109.172C1016.3 109.159 1016.35 109.148 1016.39 109.141L1016.58 109.969C1016.51 109.992 1016.43 110.016 1016.31 110.039C1016.2 110.065 1016.06 110.078 1015.89 110.078C1015.63 110.078 1015.37 110.022 1015.12 109.91C1014.88 109.798 1014.67 109.628 1014.51 109.398C1014.34 109.169 1014.26 108.88 1014.26 108.531V102.562ZM1022 105.344L1021.17 105.578C1021.12 105.44 1021.04 105.306 1020.94 105.176C1020.84 105.043 1020.7 104.934 1020.53 104.848C1020.36 104.762 1020.14 104.719 1019.87 104.719C1019.5 104.719 1019.2 104.803 1018.95 104.973C1018.71 105.139 1018.59 105.352 1018.59 105.609C1018.59 105.839 1018.67 106.02 1018.84 106.152C1019.01 106.285 1019.27 106.396 1019.62 106.484L1020.51 106.703C1021.05 106.833 1021.45 107.033 1021.71 107.301C1021.97 107.566 1022.11 107.909 1022.11 108.328C1022.11 108.672 1022.01 108.979 1021.81 109.25C1021.61 109.521 1021.34 109.734 1020.99 109.891C1020.64 110.047 1020.23 110.125 1019.76 110.125C1019.15 110.125 1018.64 109.992 1018.24 109.727C1017.84 109.461 1017.59 109.073 1017.48 108.562L1018.36 108.344C1018.44 108.667 1018.6 108.909 1018.83 109.07C1019.06 109.232 1019.37 109.312 1019.75 109.312C1020.18 109.312 1020.52 109.221 1020.77 109.039C1021.02 108.854 1021.15 108.633 1021.15 108.375C1021.15 108.167 1021.08 107.992 1020.93 107.852C1020.79 107.708 1020.56 107.602 1020.26 107.531L1019.26 107.297C1018.71 107.167 1018.31 106.965 1018.05 106.691C1017.8 106.415 1017.67 106.07 1017.67 105.656C1017.67 105.318 1017.76 105.018 1017.95 104.758C1018.15 104.497 1018.41 104.293 1018.74 104.145C1019.07 103.996 1019.45 103.922 1019.87 103.922C1020.46 103.922 1020.93 104.052 1021.27 104.312C1021.61 104.573 1021.85 104.917 1022 105.344ZM1030.68 112.25V109.078H1030.6C1030.53 109.187 1030.44 109.326 1030.31 109.492C1030.19 109.656 1030.01 109.803 1029.78 109.934C1029.55 110.061 1029.24 110.125 1028.85 110.125C1028.35 110.125 1027.91 109.999 1027.53 109.746C1027.15 109.491 1026.85 109.132 1026.63 108.668C1026.41 108.202 1026.31 107.651 1026.31 107.016C1026.31 106.385 1026.41 105.839 1026.63 105.375C1026.85 104.911 1027.15 104.553 1027.53 104.301C1027.92 104.048 1028.36 103.922 1028.87 103.922C1029.26 103.922 1029.57 103.987 1029.79 104.117C1030.02 104.245 1030.2 104.391 1030.32 104.555C1030.44 104.716 1030.53 104.849 1030.6 104.953H1030.71V104H1031.6V112.25H1030.68ZM1028.98 109.297C1029.35 109.297 1029.66 109.201 1029.92 109.008C1030.17 108.812 1030.36 108.543 1030.5 108.199C1030.63 107.853 1030.7 107.453 1030.7 107C1030.7 106.552 1030.63 106.16 1030.5 105.824C1030.37 105.486 1030.18 105.223 1029.92 105.035C1029.67 104.845 1029.35 104.75 1028.98 104.75C1028.59 104.75 1028.26 104.85 1028 105.051C1027.74 105.249 1027.55 105.518 1027.42 105.859C1027.29 106.198 1027.23 106.578 1027.23 107C1027.23 107.427 1027.29 107.815 1027.42 108.164C1027.56 108.51 1027.75 108.786 1028.01 108.992C1028.27 109.195 1028.59 109.297 1028.98 109.297ZM1037.07 107.547V104H1037.99V110H1037.07V108.984H1037.01C1036.87 109.289 1036.65 109.548 1036.35 109.762C1036.06 109.973 1035.68 110.078 1035.23 110.078C1034.85 110.078 1034.52 109.996 1034.23 109.832C1033.94 109.665 1033.71 109.415 1033.54 109.082C1033.37 108.746 1033.29 108.323 1033.29 107.812V104H1034.21V107.75C1034.21 108.187 1034.33 108.536 1034.58 108.797C1034.83 109.057 1035.14 109.187 1035.52 109.187C1035.75 109.187 1035.99 109.129 1036.22 109.012C1036.46 108.895 1036.66 108.715 1036.83 108.473C1036.99 108.23 1037.07 107.922 1037.07 107.547ZM1042.2 110.125C1041.62 110.125 1041.12 109.997 1040.7 109.742C1040.28 109.484 1039.96 109.125 1039.74 108.664C1039.51 108.201 1039.4 107.661 1039.4 107.047C1039.4 106.432 1039.51 105.891 1039.74 105.422C1039.96 104.951 1040.28 104.583 1040.68 104.32C1041.09 104.055 1041.56 103.922 1042.1 103.922C1042.42 103.922 1042.72 103.974 1043.03 104.078C1043.33 104.182 1043.61 104.352 1043.86 104.586C1044.11 104.818 1044.31 105.125 1044.46 105.508C1044.61 105.891 1044.68 106.362 1044.68 106.922V107.312H1040.06V106.516H1043.74C1043.74 106.177 1043.68 105.875 1043.54 105.609C1043.41 105.344 1043.22 105.134 1042.97 104.98C1042.73 104.827 1042.44 104.75 1042.1 104.75C1041.74 104.75 1041.42 104.841 1041.15 105.023C1040.88 105.203 1040.68 105.437 1040.54 105.727C1040.39 106.016 1040.32 106.326 1040.32 106.656V107.188C1040.32 107.641 1040.4 108.025 1040.56 108.34C1040.72 108.652 1040.94 108.891 1041.22 109.055C1041.5 109.216 1041.82 109.297 1042.2 109.297C1042.44 109.297 1042.66 109.263 1042.85 109.195C1043.05 109.125 1043.22 109.021 1043.37 108.883C1043.51 108.742 1043.62 108.568 1043.7 108.359L1044.59 108.609C1044.49 108.911 1044.34 109.177 1044.12 109.406C1043.89 109.633 1043.62 109.81 1043.29 109.937C1042.97 110.063 1042.6 110.125 1042.2 110.125ZM1049.87 107.547V104H1050.79V110H1049.87V108.984H1049.8C1049.66 109.289 1049.44 109.548 1049.15 109.762C1048.85 109.973 1048.47 110.078 1048.02 110.078C1047.65 110.078 1047.31 109.996 1047.02 109.832C1046.73 109.665 1046.5 109.415 1046.33 109.082C1046.17 108.746 1046.08 108.323 1046.08 107.812V104H1047.01V107.75C1047.01 108.187 1047.13 108.536 1047.37 108.797C1047.62 109.057 1047.94 109.187 1048.32 109.187C1048.55 109.187 1048.78 109.129 1049.02 109.012C1049.26 108.895 1049.46 108.715 1049.62 108.473C1049.78 108.23 1049.87 107.922 1049.87 107.547ZM1054.99 110.125C1054.41 110.125 1053.91 109.997 1053.5 109.742C1053.08 109.484 1052.76 109.125 1052.53 108.664C1052.31 108.201 1052.19 107.661 1052.19 107.047C1052.19 106.432 1052.31 105.891 1052.53 105.422C1052.76 104.951 1053.07 104.583 1053.48 104.32C1053.88 104.055 1054.36 103.922 1054.9 103.922C1055.21 103.922 1055.52 103.974 1055.82 104.078C1056.13 104.182 1056.41 104.352 1056.66 104.586C1056.91 104.818 1057.1 105.125 1057.25 105.508C1057.4 105.891 1057.48 106.362 1057.48 106.922V107.312H1052.85V106.516H1056.54C1056.54 106.177 1056.47 105.875 1056.33 105.609C1056.2 105.344 1056.01 105.134 1055.76 104.98C1055.52 104.827 1055.23 104.75 1054.9 104.75C1054.53 104.75 1054.21 104.841 1053.94 105.023C1053.68 105.203 1053.47 105.437 1053.33 105.727C1053.19 106.016 1053.12 106.326 1053.12 106.656V107.188C1053.12 107.641 1053.19 108.025 1053.35 108.34C1053.51 108.652 1053.73 108.891 1054.01 109.055C1054.29 109.216 1054.62 109.297 1054.99 109.297C1055.23 109.297 1055.45 109.263 1055.65 109.195C1055.85 109.125 1056.02 109.021 1056.16 108.883C1056.3 108.742 1056.41 108.568 1056.49 108.359L1057.38 108.609C1057.29 108.911 1057.13 109.177 1056.91 109.406C1056.69 109.633 1056.41 109.81 1056.09 109.937C1055.76 110.063 1055.4 110.125 1054.99 110.125ZM1061.14 110.125C1060.64 110.125 1060.2 109.999 1059.82 109.746C1059.44 109.491 1059.14 109.132 1058.92 108.668C1058.7 108.202 1058.6 107.651 1058.6 107.016C1058.6 106.385 1058.7 105.839 1058.92 105.375C1059.14 104.911 1059.44 104.553 1059.82 104.301C1060.21 104.048 1060.65 103.922 1061.16 103.922C1061.55 103.922 1061.86 103.987 1062.08 104.117C1062.31 104.245 1062.49 104.391 1062.61 104.555C1062.73 104.716 1062.83 104.849 1062.89 104.953H1062.97V102H1063.89V110H1063V109.078H1062.89C1062.83 109.187 1062.73 109.326 1062.6 109.492C1062.48 109.656 1062.3 109.803 1062.07 109.934C1061.84 110.061 1061.53 110.125 1061.14 110.125ZM1061.27 109.297C1061.64 109.297 1061.95 109.201 1062.21 109.008C1062.46 108.812 1062.66 108.543 1062.79 108.199C1062.92 107.853 1062.99 107.453 1062.99 107C1062.99 106.552 1062.92 106.16 1062.79 105.824C1062.66 105.486 1062.47 105.223 1062.21 105.035C1061.96 104.845 1061.64 104.75 1061.27 104.75C1060.88 104.75 1060.55 104.85 1060.29 105.051C1060.03 105.249 1059.84 105.518 1059.71 105.859C1059.58 106.198 1059.52 106.578 1059.52 107C1059.52 107.427 1059.58 107.815 1059.71 108.164C1059.85 108.51 1060.04 108.786 1060.3 108.992C1060.56 109.195 1060.88 109.297 1061.27 109.297Z" fill="white" fill-opacity="0.35"/>
<path d="M1002.52 139.259C1001.14 139.259 999.915 139.022 998.838 138.548C997.767 138.067 996.921 137.409 996.299 136.572C995.683 135.728 995.366 134.756 995.348 133.654H999.374C999.398 134.116 999.549 134.522 999.826 134.873C1000.11 135.218 1000.48 135.485 1000.95 135.676C1001.42 135.867 1001.95 135.962 1002.53 135.962C1003.14 135.962 1003.68 135.855 1004.15 135.639C1004.61 135.424 1004.98 135.125 1005.25 134.744C1005.51 134.362 1005.64 133.922 1005.64 133.423C1005.64 132.919 1005.5 132.472 1005.22 132.085C1004.94 131.691 1004.54 131.383 1004.02 131.161C1003.5 130.94 1002.89 130.829 1002.17 130.829H1000.41V127.893H1002.17C1002.77 127.893 1003.31 127.788 1003.77 127.579C1004.24 127.37 1004.6 127.08 1004.86 126.711C1005.12 126.335 1005.25 125.898 1005.25 125.4C1005.25 124.926 1005.13 124.51 1004.9 124.153C1004.68 123.79 1004.37 123.507 1003.96 123.304C1003.56 123.101 1003.09 122.999 1002.56 122.999C1002.02 122.999 1001.52 123.098 1001.07 123.295C1000.62 123.486 1000.26 123.759 999.992 124.116C999.721 124.473 999.577 124.892 999.558 125.372H995.727C995.745 124.283 996.056 123.322 996.659 122.491C997.262 121.661 998.075 121.011 999.097 120.543C1000.12 120.069 1001.28 119.832 1002.58 119.832C1003.88 119.832 1005.02 120.069 1006 120.543C1006.98 121.017 1007.74 121.657 1008.28 122.464C1008.83 123.264 1009.1 124.163 1009.1 125.16C1009.1 126.219 1008.77 127.102 1008.11 127.81C1007.45 128.518 1006.59 128.967 1005.53 129.158V129.305C1006.92 129.484 1007.98 129.967 1008.71 130.755C1009.44 131.537 1009.8 132.515 1009.8 133.691C1009.8 134.768 1009.49 135.725 1008.87 136.562C1008.24 137.4 1007.38 138.058 1006.29 138.538C1005.19 139.018 1003.94 139.259 1002.52 139.259Z" fill="white" fill-opacity="0.8"/>
<path d="M1168 164H782C778.686 164 776 166.686 776 170V230C776 233.314 778.686 236 782 236H1168C1171.31 236 1174 233.314 1174 230V170C1174 166.686 1171.31 164 1168 164Z" fill="white" fill-opacity="0.03" stroke="white" stroke-opacity="0.06"/>
<path d="M795.094 177.344L794.266 177.578C794.214 177.44 794.137 177.306 794.035 177.176C793.936 177.043 793.801 176.934 793.629 176.848C793.457 176.762 793.237 176.719 792.969 176.719C792.602 176.719 792.296 176.803 792.051 176.973C791.809 177.139 791.688 177.352 791.688 177.609C791.688 177.839 791.771 178.02 791.938 178.152C792.104 178.285 792.365 178.396 792.719 178.484L793.609 178.703C794.146 178.833 794.546 179.033 794.809 179.301C795.072 179.566 795.203 179.909 795.203 180.328C795.203 180.672 795.104 180.979 794.906 181.25C794.711 181.521 794.438 181.734 794.086 181.891C793.734 182.047 793.326 182.125 792.859 182.125C792.247 182.125 791.741 181.992 791.34 181.727C790.939 181.461 790.685 181.073 790.578 180.562L791.453 180.344C791.536 180.667 791.694 180.909 791.926 181.07C792.16 181.232 792.466 181.312 792.844 181.312C793.273 181.312 793.615 181.221 793.867 181.039C794.122 180.854 794.25 180.633 794.25 180.375C794.25 180.167 794.177 179.992 794.031 179.852C793.885 179.708 793.661 179.602 793.359 179.531L792.359 179.297C791.81 179.167 791.406 178.965 791.148 178.691C790.893 178.415 790.766 178.07 790.766 177.656C790.766 177.318 790.861 177.018 791.051 176.758C791.243 176.497 791.505 176.293 791.836 176.145C792.169 175.996 792.547 175.922 792.969 175.922C793.563 175.922 794.029 176.052 794.367 176.312C794.708 176.573 794.951 176.917 795.094 177.344ZM799.028 182.125C798.487 182.125 798.011 181.996 797.603 181.738C797.196 181.48 796.879 181.12 796.649 180.656C796.423 180.193 796.31 179.651 796.31 179.031C796.31 178.406 796.423 177.861 796.649 177.395C796.879 176.928 797.196 176.566 797.603 176.309C798.011 176.051 798.487 175.922 799.028 175.922C799.57 175.922 800.044 176.051 800.45 176.309C800.859 176.566 801.177 176.928 801.403 177.395C801.632 177.861 801.747 178.406 801.747 179.031C801.747 179.651 801.632 180.193 801.403 180.656C801.177 181.12 800.859 181.48 800.45 181.738C800.044 181.996 799.57 182.125 799.028 182.125ZM799.028 181.297C799.44 181.297 799.778 181.191 800.044 180.98C800.31 180.77 800.506 180.492 800.634 180.148C800.761 179.805 800.825 179.432 800.825 179.031C800.825 178.63 800.761 178.257 800.634 177.91C800.506 177.564 800.31 177.284 800.044 177.07C799.778 176.857 799.44 176.75 799.028 176.75C798.617 176.75 798.278 176.857 798.013 177.07C797.747 177.284 797.55 177.564 797.423 177.91C797.295 178.257 797.231 178.63 797.231 179.031C797.231 179.432 797.295 179.805 797.423 180.148C797.55 180.492 797.747 180.77 798.013 180.98C798.278 181.191 798.617 181.297 799.028 181.297ZM806.936 179.547V176H807.857V182H806.936V180.984H806.873C806.732 181.289 806.514 181.548 806.217 181.762C805.92 181.973 805.545 182.078 805.092 182.078C804.717 182.078 804.383 181.996 804.092 181.832C803.8 181.665 803.571 181.415 803.404 181.082C803.238 180.746 803.154 180.323 803.154 179.812V176H804.076V179.75C804.076 180.187 804.199 180.536 804.443 180.797C804.691 181.057 805.006 181.187 805.389 181.187C805.618 181.187 805.851 181.129 806.088 181.012C806.327 180.895 806.528 180.715 806.689 180.473C806.854 180.23 806.936 179.922 806.936 179.547ZM809.546 182V176H810.437V176.906H810.499C810.608 176.609 810.806 176.368 811.093 176.184C811.379 175.999 811.702 175.906 812.062 175.906C812.129 175.906 812.214 175.908 812.315 175.91C812.417 175.913 812.494 175.917 812.546 175.922V176.859C812.515 176.852 812.443 176.84 812.331 176.824C812.222 176.806 812.106 176.797 811.983 176.797C811.692 176.797 811.431 176.858 811.202 176.98C810.976 177.1 810.796 177.267 810.663 177.48C810.533 177.691 810.468 177.932 810.468 178.203V182H809.546ZM815.894 182.125C815.331 182.125 814.847 181.992 814.44 181.727C814.034 181.461 813.722 181.095 813.503 180.629C813.284 180.163 813.175 179.63 813.175 179.031C813.175 178.422 813.287 177.884 813.511 177.418C813.737 176.949 814.052 176.583 814.456 176.32C814.862 176.055 815.336 175.922 815.878 175.922C816.3 175.922 816.68 176 817.019 176.156C817.357 176.312 817.634 176.531 817.851 176.812C818.067 177.094 818.201 177.422 818.253 177.797H817.331C817.261 177.523 817.104 177.281 816.862 177.07C816.623 176.857 816.3 176.75 815.894 176.75C815.534 176.75 815.219 176.844 814.948 177.031C814.68 177.216 814.47 177.478 814.319 177.816C814.171 178.152 814.097 178.547 814.097 179C814.097 179.464 814.17 179.867 814.315 180.211C814.464 180.555 814.672 180.822 814.94 181.012C815.211 181.202 815.529 181.297 815.894 181.297C816.133 181.297 816.351 181.255 816.546 181.172C816.741 181.089 816.907 180.969 817.042 180.812C817.177 180.656 817.274 180.469 817.331 180.25H818.253C818.201 180.604 818.072 180.923 817.866 181.207C817.663 181.488 817.394 181.712 817.058 181.879C816.724 182.043 816.336 182.125 815.894 182.125ZM822.116 182.125C821.538 182.125 821.039 181.997 820.62 181.742C820.203 181.484 819.882 181.125 819.655 180.664C819.431 180.201 819.319 179.661 819.319 179.047C819.319 178.432 819.431 177.891 819.655 177.422C819.882 176.951 820.197 176.583 820.601 176.32C821.007 176.055 821.481 175.922 822.022 175.922C822.335 175.922 822.644 175.974 822.948 176.078C823.253 176.182 823.53 176.352 823.78 176.586C824.03 176.818 824.229 177.125 824.378 177.508C824.526 177.891 824.601 178.362 824.601 178.922V179.312H819.976V178.516H823.663C823.663 178.177 823.595 177.875 823.46 177.609C823.327 177.344 823.137 177.134 822.89 176.98C822.645 176.827 822.356 176.75 822.022 176.75C821.655 176.75 821.338 176.841 821.069 177.023C820.804 177.203 820.599 177.437 820.456 177.727C820.313 178.016 820.241 178.326 820.241 178.656V179.188C820.241 179.641 820.319 180.025 820.476 180.34C820.634 180.652 820.854 180.891 821.136 181.055C821.417 181.216 821.744 181.297 822.116 181.297C822.358 181.297 822.577 181.263 822.772 181.195C822.97 181.125 823.141 181.021 823.284 180.883C823.427 180.742 823.538 180.568 823.616 180.359L824.507 180.609C824.413 180.911 824.256 181.177 824.034 181.406C823.813 181.633 823.539 181.81 823.214 181.937C822.888 182.063 822.522 182.125 822.116 182.125ZM830.253 177.344L829.425 177.578C829.373 177.44 829.296 177.306 829.194 177.176C829.095 177.043 828.96 176.934 828.788 176.848C828.616 176.762 828.396 176.719 828.128 176.719C827.761 176.719 827.455 176.803 827.21 176.973C826.968 177.139 826.847 177.352 826.847 177.609C826.847 177.839 826.93 178.02 827.097 178.152C827.263 178.285 827.524 178.396 827.878 178.484L828.769 178.703C829.305 178.833 829.705 179.033 829.968 179.301C830.231 179.566 830.362 179.909 830.362 180.328C830.362 180.672 830.263 180.979 830.065 181.25C829.87 181.521 829.597 181.734 829.245 181.891C828.894 182.047 828.485 182.125 828.019 182.125C827.407 182.125 826.9 181.992 826.499 181.727C826.098 181.461 825.844 181.073 825.737 180.562L826.612 180.344C826.696 180.667 826.853 180.909 827.085 181.07C827.319 181.232 827.625 181.312 828.003 181.312C828.433 181.312 828.774 181.221 829.026 181.039C829.282 180.854 829.409 180.633 829.409 180.375C829.409 180.167 829.336 179.992 829.19 179.852C829.045 179.708 828.821 179.602 828.519 179.531L827.519 179.297C826.969 179.167 826.565 178.965 826.308 178.691C826.052 178.415 825.925 178.07 825.925 177.656C825.925 177.318 826.02 177.018 826.21 176.758C826.403 176.497 826.664 176.293 826.995 176.145C827.328 175.996 827.706 175.922 828.128 175.922C828.722 175.922 829.188 176.052 829.526 176.312C829.868 176.573 830.11 176.917 830.253 177.344ZM836.609 182.141C836.229 182.141 835.884 182.069 835.574 181.926C835.264 181.78 835.018 181.57 834.836 181.297C834.654 181.021 834.563 180.687 834.563 180.297C834.563 179.953 834.63 179.674 834.766 179.461C834.901 179.245 835.082 179.076 835.309 178.953C835.535 178.831 835.785 178.74 836.059 178.68C836.335 178.617 836.612 178.568 836.891 178.531C837.255 178.484 837.551 178.449 837.777 178.426C838.007 178.4 838.173 178.357 838.277 178.297C838.384 178.237 838.438 178.133 838.438 177.984V177.953C838.438 177.568 838.332 177.268 838.121 177.055C837.913 176.841 837.596 176.734 837.172 176.734C836.732 176.734 836.387 176.831 836.137 177.023C835.887 177.216 835.711 177.422 835.609 177.641L834.734 177.328C834.891 176.964 835.099 176.68 835.359 176.477C835.622 176.271 835.909 176.128 836.219 176.047C836.531 175.964 836.839 175.922 837.141 175.922C837.333 175.922 837.555 175.945 837.805 175.992C838.057 176.036 838.301 176.129 838.535 176.27C838.772 176.41 838.969 176.622 839.125 176.906C839.281 177.19 839.359 177.57 839.359 178.047V182H838.438V181.187H838.391C838.328 181.318 838.224 181.457 838.078 181.605C837.932 181.754 837.738 181.88 837.496 181.984C837.254 182.089 836.958 182.141 836.609 182.141ZM836.75 181.312C837.115 181.312 837.422 181.241 837.672 181.098C837.924 180.954 838.115 180.77 838.242 180.543C838.372 180.316 838.438 180.078 838.438 179.828V178.984C838.398 179.031 838.313 179.074 838.18 179.113C838.049 179.15 837.898 179.182 837.727 179.211C837.557 179.237 837.392 179.26 837.23 179.281C837.072 179.299 836.943 179.315 836.844 179.328C836.604 179.359 836.38 179.41 836.172 179.48C835.966 179.548 835.799 179.651 835.672 179.789C835.547 179.924 835.484 180.109 835.484 180.344C835.484 180.664 835.603 180.906 835.84 181.07C836.079 181.232 836.383 181.312 836.75 181.312ZM843.479 182.125C842.917 182.125 842.433 181.992 842.026 181.727C841.62 181.461 841.308 181.095 841.089 180.629C840.87 180.163 840.761 179.63 840.761 179.031C840.761 178.422 840.873 177.884 841.097 177.418C841.323 176.949 841.638 176.583 842.042 176.32C842.448 176.055 842.922 175.922 843.464 175.922C843.886 175.922 844.266 176 844.604 176.156C844.943 176.312 845.22 176.531 845.437 176.812C845.653 177.094 845.787 177.422 845.839 177.797H844.917C844.847 177.523 844.69 177.281 844.448 177.07C844.209 176.857 843.886 176.75 843.479 176.75C843.12 176.75 842.805 176.844 842.534 177.031C842.266 177.216 842.056 177.478 841.905 177.816C841.757 178.152 841.683 178.547 841.683 179C841.683 179.464 841.756 179.867 841.901 180.211C842.05 180.555 842.258 180.822 842.526 181.012C842.797 181.202 843.115 181.297 843.479 181.297C843.719 181.297 843.937 181.255 844.132 181.172C844.327 181.089 844.493 180.969 844.628 180.812C844.763 180.656 844.86 180.469 844.917 180.25H845.839C845.787 180.604 845.658 180.923 845.452 181.207C845.249 181.488 844.979 181.712 844.644 181.879C844.31 182.043 843.922 182.125 843.479 182.125ZM849.796 176V176.781H846.687V176H849.796ZM847.593 174.562H848.515V180.281C848.515 180.542 848.552 180.737 848.628 180.867C848.706 180.995 848.805 181.081 848.925 181.125C849.047 181.167 849.176 181.187 849.312 181.187C849.413 181.187 849.496 181.182 849.562 181.172C849.627 181.159 849.679 181.148 849.718 181.141L849.905 181.969C849.843 181.992 849.756 182.016 849.644 182.039C849.532 182.065 849.39 182.078 849.218 182.078C848.957 182.078 848.702 182.022 848.452 181.91C848.205 181.798 847.999 181.628 847.835 181.398C847.674 181.169 847.593 180.88 847.593 180.531V174.562ZM851.183 182V176H852.104V182H851.183ZM851.651 175C851.472 175 851.317 174.939 851.187 174.816C851.059 174.694 850.995 174.547 850.995 174.375C850.995 174.203 851.059 174.056 851.187 173.934C851.317 173.811 851.472 173.75 851.651 173.75C851.831 173.75 851.985 173.811 852.112 173.934C852.243 174.056 852.308 174.203 852.308 174.375C852.308 174.547 852.243 174.694 852.112 174.816C851.985 174.939 851.831 175 851.651 175ZM858.699 176L856.48 182H855.543L853.324 176H854.324L855.98 180.781H856.043L857.699 176H858.699ZM859.916 182V176H860.838V182H859.916ZM860.385 175C860.205 175 860.05 174.939 859.92 174.816C859.792 174.694 859.729 174.547 859.729 174.375C859.729 174.203 859.792 174.056 859.92 173.934C860.05 173.811 860.205 173.75 860.385 173.75C860.564 173.75 860.718 173.811 860.846 173.934C860.976 174.056 861.041 174.203 861.041 174.375C861.041 174.547 860.976 174.694 860.846 174.816C860.718 174.939 860.564 175 860.385 175ZM865.136 176V176.781H862.026V176H865.136ZM862.933 174.562H863.854V180.281C863.854 180.542 863.892 180.737 863.968 180.867C864.046 180.995 864.145 181.081 864.265 181.125C864.387 181.167 864.516 181.187 864.651 181.187C864.753 181.187 864.836 181.182 864.901 181.172C864.966 181.159 865.019 181.148 865.058 181.141L865.245 181.969C865.183 181.992 865.095 182.016 864.983 182.039C864.871 182.065 864.729 182.078 864.558 182.078C864.297 182.078 864.042 182.022 863.792 181.91C863.545 181.798 863.339 181.628 863.175 181.398C863.013 181.169 862.933 180.88 862.933 180.531V174.562ZM867.116 184.25C866.96 184.25 866.821 184.237 866.698 184.211C866.576 184.188 866.491 184.164 866.444 184.141L866.679 183.328C866.903 183.385 867.101 183.406 867.272 183.391C867.444 183.375 867.597 183.298 867.729 183.16C867.865 183.025 867.989 182.805 868.101 182.5L868.272 182.031L866.054 176H867.054L868.71 180.781H868.772L870.429 176H871.429L868.882 182.875C868.767 183.185 868.625 183.441 868.456 183.645C868.287 183.85 868.09 184.003 867.866 184.102C867.645 184.201 867.395 184.25 867.116 184.25Z" fill="white" fill-opacity="0.35"/>
<path d="M798 206H792C790.895 206 790 206.895 790 208V222C790 223.105 790.895 224 792 224H798C799.105 224 800 223.105 800 222V208C800 206.895 799.105 206 798 206Z" fill="#1DB483" fill-opacity="0.3"/>
<path d="M814 198H808C806.895 198 806 198.895 806 200V222C806 223.105 806.895 224 808 224H814C815.105 224 816 223.105 816 222V200C816 198.895 815.105 198 814 198Z" fill="#1DB483" fill-opacity="0.3"/>
<path d="M830 192H824C822.895 192 822 192.895 822 194V222C822 223.105 822.895 224 824 224H830C831.105 224 832 223.105 832 222V194C832 192.895 831.105 192 830 192Z" fill="#1DB483"/>
<path d="M846 200H840C838.895 200 838 200.895 838 202V222C838 223.105 838.895 224 840 224H846C847.105 224 848 223.105 848 222V202C848 200.895 847.105 200 846 200Z" fill="#1DB483" fill-opacity="0.3"/>
<path d="M862 194H856C854.895 194 854 194.895 854 196V222C854 223.105 854.895 224 856 224H862C863.105 224 864 223.105 864 222V196C864 194.895 863.105 194 862 194Z" fill="#1DB483"/>
<path d="M878 208H872C870.895 208 870 208.895 870 210V222C870 223.105 870.895 224 872 224H878C879.105 224 880 223.105 880 222V210C880 208.895 879.105 208 878 208Z" fill="#1DB483" fill-opacity="0.3"/>
<path d="M894 202H888C886.895 202 886 202.895 886 204V222C886 223.105 886.895 224 888 224H894C895.105 224 896 223.105 896 222V204C896 202.895 895.105 202 894 202Z" fill="#1DB483" fill-opacity="0.3"/>
<path d="M910 190H904C902.895 190 902 190.895 902 192V222C902 223.105 902.895 224 904 224H910C911.105 224 912 223.105 912 222V192C912 190.895 911.105 190 910 190Z" fill="#1DB483"/>
<path d="M926 204H920C918.895 204 918 204.895 918 206V222C918 223.105 918.895 224 920 224H926C927.105 224 928 223.105 928 222V206C928 204.895 927.105 204 926 204Z" fill="#1DB483" fill-opacity="0.3"/>
<path d="M942 196H936C934.895 196 934 196.895 934 198V222C934 223.105 934.895 224 936 224H942C943.105 224 944 223.105 944 222V198C944 196.895 943.105 196 942 196Z" fill="#1DB483" fill-opacity="0.3"/>
<path d="M958 200H952C950.895 200 950 200.895 950 202V222C950 223.105 950.895 224 952 224H958C959.105 224 960 223.105 960 222V202C960 200.895 959.105 200 958 200Z" fill="#1DB483"/>
<path d="M974 206H968C966.895 206 966 206.895 966 208V222C966 223.105 966.895 224 968 224H974C975.105 224 976 223.105 976 222V208C976 206.895 975.105 206 974 206Z" fill="#1DB483" fill-opacity="0.3"/>
<path d="M990 194H984C982.895 194 982 194.895 982 196V222C982 223.105 982.895 224 984 224H990C991.105 224 992 223.105 992 222V196C992 194.895 991.105 194 990 194Z" fill="#1DB483" fill-opacity="0.3"/>
<path d="M1006 192H1000C998.895 192 998 192.895 998 194V222C998 223.105 998.895 224 1000 224H1006C1007.1 224 1008 223.105 1008 222V194C1008 192.895 1007.1 192 1006 192Z" fill="#1DB483"/>
<path d="M1022 202H1016C1014.9 202 1014 202.895 1014 204V222C1014 223.105 1014.9 224 1016 224H1022C1023.1 224 1024 223.105 1024 222V204C1024 202.895 1023.1 202 1022 202Z" fill="#1DB483" fill-opacity="0.3"/>
<path d="M1038 198H1032C1030.9 198 1030 198.895 1030 200V222C1030 223.105 1030.9 224 1032 224H1038C1039.1 224 1040 223.105 1040 222V200C1040 198.895 1039.1 198 1038 198Z" fill="#1DB483" fill-opacity="0.3"/>
<path d="M1054 190H1048C1046.9 190 1046 190.895 1046 192V222C1046 223.105 1046.9 224 1048 224H1054C1055.1 224 1056 223.105 1056 222V192C1056 190.895 1055.1 190 1054 190Z" fill="#1DB483"/>
<path d="M1070 204H1064C1062.9 204 1062 204.895 1062 206V222C1062 223.105 1062.9 224 1064 224H1070C1071.1 224 1072 223.105 1072 222V206C1072 204.895 1071.1 204 1070 204Z" fill="#1DB483" fill-opacity="0.3"/>
<path d="M1086 196H1080C1078.9 196 1078 196.895 1078 198V222C1078 223.105 1078.9 224 1080 224H1086C1087.1 224 1088 223.105 1088 222V198C1088 196.895 1087.1 196 1086 196Z" fill="#1DB483" fill-opacity="0.3"/>
<path d="M1102 200H1096C1094.9 200 1094 200.895 1094 202V222C1094 223.105 1094.9 224 1096 224H1102C1103.1 224 1104 223.105 1104 222V202C1104 200.895 1103.1 200 1102 200Z" fill="#1DB483"/>
<path d="M1118 206H1112C1110.9 206 1110 206.895 1110 208V222C1110 223.105 1110.9 224 1112 224H1118C1119.1 224 1120 223.105 1120 222V208C1120 206.895 1119.1 206 1118 206Z" fill="#1DB483" fill-opacity="0.3"/>
<path d="M1134 194H1128C1126.9 194 1126 194.895 1126 196V222C1126 223.105 1126.9 224 1128 224H1134C1135.1 224 1136 223.105 1136 222V196C1136 194.895 1135.1 194 1134 194Z" fill="#1DB483"/>
<path d="M1150 202H1144C1142.9 202 1142 202.895 1142 204V222C1142 223.105 1142.9 224 1144 224H1150C1151.1 224 1152 223.105 1152 222V204C1152 202.895 1151.1 202 1150 202Z" fill="#1DB483" fill-opacity="0.3"/>
<path d="M964 248H782C778.686 248 776 250.686 776 254V298C776 301.314 778.686 304 782 304H964C967.314 304 970 301.314 970 298V254C970 250.686 967.314 248 964 248Z" fill="white" fill-opacity="0.03" stroke="white" stroke-opacity="0.06"/>
<path d="M795.094 261.344L794.266 261.578C794.214 261.44 794.137 261.306 794.035 261.176C793.936 261.043 793.801 260.934 793.629 260.848C793.457 260.762 793.237 260.719 792.969 260.719C792.602 260.719 792.296 260.803 792.051 260.973C791.809 261.139 791.688 261.352 791.688 261.609C791.688 261.839 791.771 262.02 791.938 262.152C792.104 262.285 792.365 262.396 792.719 262.484L793.609 262.703C794.146 262.833 794.546 263.033 794.809 263.301C795.072 263.566 795.203 263.909 795.203 264.328C795.203 264.672 795.104 264.979 794.906 265.25C794.711 265.521 794.438 265.734 794.086 265.891C793.734 266.047 793.326 266.125 792.859 266.125C792.247 266.125 791.741 265.992 791.34 265.727C790.939 265.461 790.685 265.073 790.578 264.562L791.453 264.344C791.536 264.667 791.694 264.909 791.926 265.07C792.16 265.232 792.466 265.312 792.844 265.312C793.273 265.312 793.615 265.221 793.867 265.039C794.122 264.854 794.25 264.633 794.25 264.375C794.25 264.167 794.177 263.992 794.031 263.852C793.885 263.708 793.661 263.602 793.359 263.531L792.359 263.297C791.81 263.167 791.406 262.965 791.148 262.691C790.893 262.415 790.766 262.07 790.766 261.656C790.766 261.318 790.861 261.018 791.051 260.758C791.243 260.497 791.505 260.293 791.836 260.145C792.169 259.996 792.547 259.922 792.969 259.922C793.563 259.922 794.029 260.052 794.367 260.312C794.708 260.573 794.951 260.917 795.094 261.344ZM799.106 266.125C798.528 266.125 798.03 265.997 797.61 265.742C797.194 265.484 796.872 265.125 796.646 264.664C796.422 264.201 796.31 263.661 796.31 263.047C796.31 262.432 796.422 261.891 796.646 261.422C796.872 260.951 797.187 260.583 797.591 260.32C797.997 260.055 798.471 259.922 799.013 259.922C799.325 259.922 799.634 259.974 799.938 260.078C800.243 260.182 800.521 260.352 800.771 260.586C801.021 260.818 801.22 261.125 801.368 261.508C801.517 261.891 801.591 262.362 801.591 262.922V263.312H796.966V262.516H800.653C800.653 262.177 800.586 261.875 800.45 261.609C800.317 261.344 800.127 261.134 799.88 260.98C799.635 260.827 799.346 260.75 799.013 260.75C798.646 260.75 798.328 260.841 798.06 261.023C797.794 261.203 797.59 261.437 797.446 261.727C797.303 262.016 797.231 262.326 797.231 262.656V263.188C797.231 263.641 797.31 264.025 797.466 264.34C797.625 264.652 797.845 264.891 798.126 265.055C798.407 265.216 798.734 265.297 799.106 265.297C799.349 265.297 799.567 265.263 799.763 265.195C799.961 265.125 800.131 265.021 800.274 264.883C800.418 264.742 800.528 264.568 800.606 264.359L801.497 264.609C801.403 264.911 801.246 265.177 801.024 265.406C800.803 265.633 800.53 265.81 800.204 265.937C799.879 266.063 799.513 266.125 799.106 266.125ZM807.243 261.344L806.415 261.578C806.363 261.44 806.286 261.306 806.185 261.176C806.086 261.043 805.95 260.934 805.778 260.848C805.606 260.762 805.386 260.719 805.118 260.719C804.751 260.719 804.445 260.803 804.2 260.973C803.958 261.139 803.837 261.352 803.837 261.609C803.837 261.839 803.92 262.02 804.087 262.152C804.254 262.285 804.514 262.396 804.868 262.484L805.759 262.703C806.295 262.833 806.695 263.033 806.958 263.301C807.221 263.566 807.353 263.909 807.353 264.328C807.353 264.672 807.254 264.979 807.056 265.25C806.86 265.521 806.587 265.734 806.235 265.891C805.884 266.047 805.475 266.125 805.009 266.125C804.397 266.125 803.89 265.992 803.489 265.727C803.088 265.461 802.834 265.073 802.728 264.562L803.603 264.344C803.686 264.667 803.843 264.909 804.075 265.07C804.31 265.232 804.616 265.312 804.993 265.312C805.423 265.312 805.764 265.221 806.017 265.039C806.272 264.854 806.399 264.633 806.399 264.375C806.399 264.167 806.326 263.992 806.181 263.852C806.035 263.708 805.811 263.602 805.509 263.531L804.509 263.297C803.959 263.167 803.556 262.965 803.298 262.691C803.043 262.415 802.915 262.07 802.915 261.656C802.915 261.318 803.01 261.018 803.2 260.758C803.393 260.497 803.655 260.293 803.985 260.145C804.319 259.996 804.696 259.922 805.118 259.922C805.712 259.922 806.178 260.052 806.517 260.312C806.858 260.573 807.1 260.917 807.243 261.344ZM812.99 261.344L812.162 261.578C812.11 261.44 812.033 261.306 811.932 261.176C811.833 261.043 811.697 260.934 811.525 260.848C811.354 260.762 811.133 260.719 810.865 260.719C810.498 260.719 810.192 260.803 809.947 260.973C809.705 261.139 809.584 261.352 809.584 261.609C809.584 261.839 809.667 262.02 809.834 262.152C810.001 262.285 810.261 262.396 810.615 262.484L811.506 262.703C812.042 262.833 812.442 263.033 812.705 263.301C812.968 263.566 813.1 263.909 813.1 264.328C813.1 264.672 813.001 264.979 812.803 265.25C812.607 265.521 812.334 265.734 811.982 265.891C811.631 266.047 811.222 266.125 810.756 266.125C810.144 266.125 809.637 265.992 809.236 265.727C808.835 265.461 808.581 265.073 808.475 264.562L809.35 264.344C809.433 264.667 809.59 264.909 809.822 265.07C810.057 265.232 810.363 265.312 810.74 265.312C811.17 265.312 811.511 265.221 811.764 265.039C812.019 264.854 812.146 264.633 812.146 264.375C812.146 264.167 812.074 263.992 811.928 263.852C811.782 263.708 811.558 263.602 811.256 263.531L810.256 263.297C809.706 263.167 809.303 262.965 809.045 262.691C808.79 262.415 808.662 262.07 808.662 261.656C808.662 261.318 808.757 261.018 808.947 260.758C809.14 260.497 809.402 260.293 809.732 260.145C810.066 259.996 810.443 259.922 810.865 259.922C811.459 259.922 811.925 260.052 812.264 260.312C812.605 260.573 812.847 260.917 812.99 261.344ZM814.487 266V260H815.409V266H814.487ZM814.956 259C814.776 259 814.621 258.939 814.491 258.816C814.364 258.694 814.3 258.547 814.3 258.375C814.3 258.203 814.364 258.056 814.491 257.934C814.621 257.811 814.776 257.75 814.956 257.75C815.136 257.75 815.289 257.811 815.417 257.934C815.547 258.056 815.612 258.203 815.612 258.375C815.612 258.547 815.547 258.694 815.417 258.816C815.289 258.939 815.136 259 814.956 259ZM819.535 266.125C818.993 266.125 818.518 265.996 818.109 265.738C817.703 265.48 817.385 265.12 817.156 264.656C816.93 264.193 816.816 263.651 816.816 263.031C816.816 262.406 816.93 261.861 817.156 261.395C817.385 260.928 817.703 260.566 818.109 260.309C818.518 260.051 818.993 259.922 819.535 259.922C820.077 259.922 820.551 260.051 820.957 260.309C821.366 260.566 821.684 260.928 821.91 261.395C822.139 261.861 822.254 262.406 822.254 263.031C822.254 263.651 822.139 264.193 821.91 264.656C821.684 265.12 821.366 265.48 820.957 265.738C820.551 265.996 820.077 266.125 819.535 266.125ZM819.535 265.297C819.947 265.297 820.285 265.191 820.551 264.98C820.816 264.77 821.013 264.492 821.141 264.148C821.268 263.805 821.332 263.432 821.332 263.031C821.332 262.63 821.268 262.257 821.141 261.91C821.013 261.564 820.816 261.284 820.551 261.07C820.285 260.857 819.947 260.75 819.535 260.75C819.124 260.75 818.785 260.857 818.52 261.07C818.254 261.284 818.057 261.564 817.93 261.91C817.802 262.257 817.738 262.63 817.738 263.031C817.738 263.432 817.802 263.805 817.93 264.148C818.057 264.492 818.254 264.77 818.52 264.98C818.785 265.191 819.124 265.297 819.535 265.297ZM824.583 262.391V266H823.661V260H824.552V260.937H824.63C824.771 260.633 824.984 260.388 825.271 260.203C825.557 260.016 825.927 259.922 826.38 259.922C826.786 259.922 827.142 260.005 827.446 260.172C827.751 260.336 827.988 260.586 828.157 260.922C828.326 261.255 828.411 261.677 828.411 262.188V266H827.489V262.25C827.489 261.779 827.367 261.411 827.122 261.148C826.877 260.883 826.541 260.75 826.114 260.75C825.82 260.75 825.557 260.814 825.325 260.941C825.096 261.069 824.915 261.255 824.782 261.5C824.649 261.745 824.583 262.042 824.583 262.391Z" fill="white" fill-opacity="0.35"/>
<path d="M793 293C795.209 293 797 291.209 797 289C797 286.791 795.209 285 793 285C790.791 285 789 286.791 789 289C789 291.209 790.791 293 793 293Z" fill="#1DB483"/>
<path d="M807.084 293.166C806.634 293.166 806.227 293.082 805.86 292.912C805.494 292.74 805.203 292.492 804.988 292.169C804.772 291.843 804.665 291.449 804.665 290.987C804.665 290.581 804.745 290.252 804.905 289.999C805.065 289.744 805.279 289.544 805.547 289.399C805.814 289.254 806.11 289.147 806.433 289.076C806.759 289.002 807.087 288.944 807.416 288.901C807.847 288.845 808.196 288.804 808.464 288.776C808.735 288.745 808.932 288.694 809.055 288.624C809.181 288.553 809.244 288.43 809.244 288.254V288.217C809.244 287.762 809.12 287.408 808.87 287.156C808.624 286.903 808.25 286.777 807.749 286.777C807.228 286.777 806.821 286.891 806.525 287.119C806.23 287.346 806.022 287.589 805.902 287.848L804.868 287.479C805.053 287.048 805.299 286.712 805.607 286.472C805.917 286.229 806.256 286.06 806.622 285.964C806.991 285.866 807.355 285.817 807.712 285.817C807.939 285.817 808.201 285.844 808.496 285.9C808.795 285.952 809.083 286.061 809.36 286.228C809.64 286.394 809.872 286.645 810.057 286.98C810.241 287.316 810.334 287.765 810.334 288.328V293H809.244V292.04H809.189C809.115 292.194 808.992 292.358 808.82 292.534C808.647 292.709 808.418 292.858 808.132 292.982C807.846 293.105 807.496 293.166 807.084 293.166ZM807.25 292.188C807.681 292.188 808.044 292.103 808.339 291.934C808.638 291.764 808.863 291.546 809.013 291.278C809.167 291.01 809.244 290.729 809.244 290.433V289.436C809.198 289.491 809.097 289.542 808.94 289.588C808.786 289.632 808.607 289.67 808.404 289.704C808.204 289.735 808.009 289.762 807.818 289.787C807.63 289.808 807.478 289.827 807.361 289.842C807.078 289.879 806.813 289.939 806.567 290.022C806.324 290.102 806.127 290.224 805.976 290.387C805.828 290.547 805.754 290.766 805.754 291.043C805.754 291.421 805.894 291.707 806.174 291.901C806.458 292.092 806.816 292.188 807.25 292.188ZM815.203 293.148C814.538 293.148 813.966 292.991 813.486 292.677C813.006 292.363 812.636 291.931 812.378 291.38C812.119 290.829 811.99 290.199 811.99 289.491C811.99 288.771 812.122 288.136 812.387 287.585C812.655 287.031 813.027 286.598 813.504 286.288C813.984 285.974 814.544 285.817 815.185 285.817C815.683 285.817 816.132 285.909 816.533 286.094C816.933 286.278 817.26 286.537 817.516 286.869C817.771 287.202 817.93 287.589 817.991 288.033H816.902C816.819 287.71 816.634 287.423 816.348 287.174C816.065 286.922 815.683 286.795 815.203 286.795C814.778 286.795 814.406 286.906 814.086 287.128C813.769 287.346 813.521 287.656 813.343 288.056C813.167 288.453 813.079 288.919 813.079 289.455C813.079 290.002 813.166 290.479 813.338 290.886C813.513 291.292 813.76 291.607 814.077 291.832C814.397 292.057 814.772 292.169 815.203 292.169C815.486 292.169 815.743 292.12 815.974 292.021C816.205 291.923 816.4 291.781 816.56 291.597C816.72 291.412 816.834 291.19 816.902 290.932H817.991C817.93 291.35 817.777 291.727 817.534 292.063C817.294 292.395 816.976 292.66 816.579 292.857C816.185 293.051 815.726 293.148 815.203 293.148ZM822.668 285.909V286.832H818.993V285.909H822.668ZM820.064 284.21H821.154V290.969C821.154 291.277 821.198 291.507 821.288 291.661C821.38 291.812 821.497 291.914 821.638 291.966C821.783 292.015 821.935 292.04 822.095 292.04C822.215 292.04 822.314 292.034 822.391 292.021C822.468 292.006 822.529 291.994 822.576 291.984L822.797 292.963C822.723 292.991 822.62 293.018 822.488 293.046C822.355 293.077 822.188 293.092 821.985 293.092C821.677 293.092 821.375 293.026 821.08 292.894C820.787 292.761 820.544 292.56 820.35 292.289C820.16 292.018 820.064 291.677 820.064 291.264V284.21ZM824.307 293V285.909H825.396V293H824.307ZM824.861 284.727C824.648 284.727 824.465 284.655 824.311 284.51C824.161 284.366 824.085 284.192 824.085 283.989C824.085 283.786 824.161 283.612 824.311 283.467C824.465 283.322 824.648 283.25 824.861 283.25C825.073 283.25 825.255 283.322 825.405 283.467C825.559 283.612 825.636 283.786 825.636 283.989C825.636 284.192 825.559 284.366 825.405 284.51C825.255 284.655 825.073 284.727 824.861 284.727ZM833.19 285.909L830.568 293H829.46L826.838 285.909H828.02L829.977 291.56H830.051L832.008 285.909H833.19ZM837.347 293.148C836.664 293.148 836.075 292.997 835.579 292.695C835.087 292.391 834.706 291.966 834.439 291.421C834.174 290.873 834.042 290.236 834.042 289.51C834.042 288.784 834.174 288.143 834.439 287.589C834.706 287.032 835.079 286.598 835.556 286.288C836.036 285.974 836.596 285.817 837.236 285.817C837.606 285.817 837.97 285.878 838.33 286.001C838.691 286.125 839.018 286.325 839.314 286.602C839.609 286.875 839.845 287.239 840.02 287.691C840.195 288.143 840.283 288.701 840.283 289.362V289.824H834.817V288.882H839.175C839.175 288.482 839.095 288.125 838.935 287.811C838.778 287.497 838.554 287.249 838.261 287.068C837.972 286.886 837.63 286.795 837.236 286.795C836.802 286.795 836.427 286.903 836.11 287.119C835.796 287.331 835.554 287.608 835.385 287.95C835.216 288.291 835.131 288.657 835.131 289.048V289.676C835.131 290.212 835.224 290.666 835.408 291.038C835.596 291.407 835.856 291.689 836.188 291.883C836.521 292.074 836.907 292.169 837.347 292.169C837.633 292.169 837.892 292.129 838.123 292.049C838.357 291.966 838.558 291.843 838.727 291.68C838.897 291.513 839.028 291.307 839.12 291.061L840.172 291.357C840.062 291.714 839.875 292.027 839.614 292.298C839.352 292.566 839.029 292.775 838.644 292.926C838.26 293.074 837.827 293.148 837.347 293.148Z" fill="#1DB483"/>
<path d="M1168 248H986C982.686 248 980 250.686 980 254V298C980 301.314 982.686 304 986 304H1168C1171.31 304 1174 301.314 1174 298V254C1174 250.686 1171.31 248 1168 248Z" fill="white" fill-opacity="0.03" stroke="white" stroke-opacity="0.06"/>
<path d="M997.281 266.125C996.719 266.125 996.234 265.992 995.828 265.727C995.422 265.461 995.109 265.095 994.891 264.629C994.672 264.163 994.563 263.63 994.563 263.031C994.563 262.422 994.674 261.884 994.898 261.418C995.125 260.949 995.44 260.583 995.844 260.32C996.25 260.055 996.724 259.922 997.266 259.922C997.687 259.922 998.068 260 998.406 260.156C998.745 260.312 999.022 260.531 999.238 260.812C999.454 261.094 999.589 261.422 999.641 261.797H998.719C998.648 261.523 998.492 261.281 998.25 261.07C998.01 260.857 997.688 260.75 997.281 260.75C996.922 260.75 996.607 260.844 996.336 261.031C996.068 261.216 995.858 261.478 995.707 261.816C995.559 262.152 995.484 262.547 995.484 263C995.484 263.464 995.557 263.867 995.703 264.211C995.852 264.555 996.06 264.822 996.328 265.012C996.599 265.202 996.917 265.297 997.281 265.297C997.521 265.297 997.738 265.255 997.934 265.172C998.129 265.089 998.294 264.969 998.43 264.812C998.565 264.656 998.661 264.469 998.719 264.25H999.641C999.589 264.604 999.46 264.923 999.254 265.207C999.051 265.488 998.781 265.712 998.445 265.879C998.112 266.043 997.724 266.125 997.281 266.125ZM1003.43 266.125C1002.88 266.125 1002.41 265.996 1002 265.738C1001.59 265.48 1001.28 265.12 1001.05 264.656C1000.82 264.193 1000.71 263.651 1000.71 263.031C1000.71 262.406 1000.82 261.861 1001.05 261.395C1001.28 260.928 1001.59 260.566 1002 260.309C1002.41 260.051 1002.88 259.922 1003.43 259.922C1003.97 259.922 1004.44 260.051 1004.85 260.309C1005.26 260.566 1005.57 260.928 1005.8 261.395C1006.03 261.861 1006.14 262.406 1006.14 263.031C1006.14 263.651 1006.03 264.193 1005.8 264.656C1005.57 265.12 1005.26 265.48 1004.85 265.738C1004.44 265.996 1003.97 266.125 1003.43 266.125ZM1003.43 265.297C1003.84 265.297 1004.18 265.191 1004.44 264.98C1004.71 264.77 1004.9 264.492 1005.03 264.148C1005.16 263.805 1005.22 263.432 1005.22 263.031C1005.22 262.63 1005.16 262.257 1005.03 261.91C1004.9 261.564 1004.71 261.284 1004.44 261.07C1004.18 260.857 1003.84 260.75 1003.43 260.75C1003.01 260.75 1002.68 260.857 1002.41 261.07C1002.14 261.284 1001.95 261.564 1001.82 261.91C1001.69 262.257 1001.63 262.63 1001.63 263.031C1001.63 263.432 1001.69 263.805 1001.82 264.148C1001.95 264.492 1002.14 264.77 1002.41 264.98C1002.68 265.191 1003.01 265.297 1003.43 265.297ZM1008.47 262.391V266H1007.55V260H1008.44V260.937H1008.52C1008.66 260.633 1008.87 260.388 1009.16 260.203C1009.45 260.016 1009.82 259.922 1010.27 259.922C1010.68 259.922 1011.03 260.005 1011.34 260.172C1011.64 260.336 1011.88 260.586 1012.05 260.922C1012.22 261.255 1012.3 261.677 1012.3 262.188V266H1011.38V262.25C1011.38 261.779 1011.26 261.411 1011.01 261.148C1010.77 260.883 1010.43 260.75 1010 260.75C1009.71 260.75 1009.45 260.814 1009.22 260.941C1008.99 261.069 1008.81 261.255 1008.67 261.5C1008.54 261.745 1008.47 262.042 1008.47 262.391ZM1016.6 260V260.781H1013.49V260H1016.6ZM1014.39 258.562H1015.31V264.281C1015.31 264.542 1015.35 264.737 1015.43 264.867C1015.51 264.995 1015.6 265.081 1015.72 265.125C1015.85 265.167 1015.98 265.187 1016.11 265.187C1016.21 265.187 1016.3 265.182 1016.36 265.172C1016.43 265.159 1016.48 265.148 1016.52 265.141L1016.71 265.969C1016.64 265.992 1016.56 266.016 1016.44 266.039C1016.33 266.065 1016.19 266.078 1016.02 266.078C1015.76 266.078 1015.5 266.022 1015.25 265.91C1015 265.798 1014.8 265.628 1014.63 265.398C1014.47 265.169 1014.39 264.88 1014.39 264.531V258.562ZM1019.75 266.141C1019.37 266.141 1019.02 266.069 1018.71 265.926C1018.4 265.78 1018.16 265.57 1017.97 265.297C1017.79 265.021 1017.7 264.687 1017.7 264.297C1017.7 263.953 1017.77 263.674 1017.9 263.461C1018.04 263.245 1018.22 263.076 1018.45 262.953C1018.67 262.831 1018.92 262.74 1019.2 262.68C1019.47 262.617 1019.75 262.568 1020.03 262.531C1020.39 262.484 1020.69 262.449 1020.92 262.426C1021.15 262.4 1021.31 262.357 1021.42 262.297C1021.52 262.237 1021.58 262.133 1021.58 261.984V261.953C1021.58 261.568 1021.47 261.268 1021.26 261.055C1021.05 260.841 1020.74 260.734 1020.31 260.734C1019.87 260.734 1019.53 260.831 1019.28 261.023C1019.03 261.216 1018.85 261.422 1018.75 261.641L1017.87 261.328C1018.03 260.964 1018.24 260.68 1018.5 260.477C1018.76 260.271 1019.05 260.128 1019.36 260.047C1019.67 259.964 1019.98 259.922 1020.28 259.922C1020.47 259.922 1020.69 259.945 1020.94 259.992C1021.2 260.036 1021.44 260.129 1021.67 260.27C1021.91 260.41 1022.11 260.622 1022.26 260.906C1022.42 261.19 1022.5 261.57 1022.5 262.047V266H1021.58V265.187H1021.53C1021.47 265.318 1021.36 265.457 1021.22 265.605C1021.07 265.754 1020.88 265.88 1020.63 265.984C1020.39 266.089 1020.1 266.141 1019.75 266.141ZM1019.89 265.312C1020.25 265.312 1020.56 265.241 1020.81 265.098C1021.06 264.954 1021.25 264.77 1021.38 264.543C1021.51 264.316 1021.58 264.078 1021.58 263.828V262.984C1021.54 263.031 1021.45 263.074 1021.32 263.113C1021.19 263.15 1021.04 263.182 1020.87 263.211C1020.7 263.237 1020.53 263.26 1020.37 263.281C1020.21 263.299 1020.08 263.315 1019.98 263.328C1019.74 263.359 1019.52 263.41 1019.31 263.48C1019.1 263.548 1018.94 263.651 1018.81 263.789C1018.69 263.924 1018.62 264.109 1018.62 264.344C1018.62 264.664 1018.74 264.906 1018.98 265.07C1019.22 265.232 1019.52 265.312 1019.89 265.312ZM1026.62 266.125C1026.06 266.125 1025.57 265.992 1025.17 265.727C1024.76 265.461 1024.45 265.095 1024.23 264.629C1024.01 264.163 1023.9 263.63 1023.9 263.031C1023.9 262.422 1024.01 261.884 1024.24 261.418C1024.46 260.949 1024.78 260.583 1025.18 260.32C1025.59 260.055 1026.06 259.922 1026.6 259.922C1027.02 259.922 1027.4 260 1027.74 260.156C1028.08 260.312 1028.36 260.531 1028.58 260.812C1028.79 261.094 1028.93 261.422 1028.98 261.797H1028.06C1027.99 261.523 1027.83 261.281 1027.59 261.07C1027.35 260.857 1027.02 260.75 1026.62 260.75C1026.26 260.75 1025.94 260.844 1025.67 261.031C1025.4 261.216 1025.19 261.478 1025.04 261.816C1024.9 262.152 1024.82 262.547 1024.82 263C1024.82 263.464 1024.89 263.867 1025.04 264.211C1025.19 264.555 1025.4 264.822 1025.67 265.012C1025.94 265.202 1026.25 265.297 1026.62 265.297C1026.86 265.297 1027.08 265.255 1027.27 265.172C1027.47 265.089 1027.63 264.969 1027.77 264.812C1027.9 264.656 1028 264.469 1028.06 264.25H1028.98C1028.93 264.604 1028.8 264.923 1028.59 265.207C1028.39 265.488 1028.12 265.712 1027.78 265.879C1027.45 266.043 1027.06 266.125 1026.62 266.125ZM1032.93 260V260.781H1029.83V260H1032.93ZM1030.73 258.562H1031.65V264.281C1031.65 264.542 1031.69 264.737 1031.77 264.867C1031.84 264.995 1031.94 265.081 1032.06 265.125C1032.19 265.167 1032.31 265.187 1032.45 265.187C1032.55 265.187 1032.64 265.182 1032.7 265.172C1032.77 265.159 1032.82 265.148 1032.86 265.141L1033.04 265.969C1032.98 265.992 1032.89 266.016 1032.78 266.039C1032.67 266.065 1032.53 266.078 1032.36 266.078C1032.1 266.078 1031.84 266.022 1031.59 265.91C1031.34 265.798 1031.14 265.628 1030.97 265.398C1030.81 265.169 1030.73 264.88 1030.73 264.531V258.562ZM1038.46 261.344L1037.64 261.578C1037.58 261.44 1037.51 261.306 1037.41 261.176C1037.31 261.043 1037.17 260.934 1037 260.848C1036.83 260.762 1036.61 260.719 1036.34 260.719C1035.97 260.719 1035.67 260.803 1035.42 260.973C1035.18 261.139 1035.06 261.352 1035.06 261.609C1035.06 261.839 1035.14 262.02 1035.31 262.152C1035.47 262.285 1035.73 262.396 1036.09 262.484L1036.98 262.703C1037.52 262.833 1037.92 263.033 1038.18 263.301C1038.44 263.566 1038.57 263.909 1038.57 264.328C1038.57 264.672 1038.47 264.979 1038.28 265.25C1038.08 265.521 1037.81 265.734 1037.46 265.891C1037.1 266.047 1036.7 266.125 1036.23 266.125C1035.62 266.125 1035.11 265.992 1034.71 265.727C1034.31 265.461 1034.06 265.073 1033.95 264.562L1034.82 264.344C1034.91 264.667 1035.06 264.909 1035.3 265.07C1035.53 265.232 1035.84 265.312 1036.21 265.312C1036.64 265.312 1036.98 265.221 1037.24 265.039C1037.49 264.854 1037.62 264.633 1037.62 264.375C1037.62 264.167 1037.55 263.992 1037.4 263.852C1037.26 263.708 1037.03 263.602 1036.73 263.531L1035.73 263.297C1035.18 263.167 1034.78 262.965 1034.52 262.691C1034.26 262.415 1034.14 262.07 1034.14 261.656C1034.14 261.318 1034.23 261.018 1034.42 260.758C1034.61 260.497 1034.88 260.293 1035.21 260.145C1035.54 259.996 1035.92 259.922 1036.34 259.922C1036.93 259.922 1037.4 260.052 1037.74 260.312C1038.08 260.573 1038.32 260.917 1038.46 261.344Z" fill="white" fill-opacity="0.35"/>
<path d="M1001.51 277.455V292H998.432V280.374H998.347L995.016 282.462V279.734L998.616 277.455H1001.51ZM1004.96 292V289.784L1010.14 284.99C1010.58 284.564 1010.95 284.18 1011.25 283.839C1011.55 283.499 1011.78 283.165 1011.94 282.838C1012.09 282.507 1012.17 282.149 1012.17 281.766C1012.17 281.339 1012.08 280.973 1011.88 280.665C1011.69 280.352 1011.42 280.113 1011.09 279.947C1010.75 279.777 1010.37 279.692 1009.94 279.692C1009.5 279.692 1009.11 279.782 1008.78 279.962C1008.45 280.142 1008.19 280.4 1008.01 280.736C1007.83 281.072 1007.74 281.472 1007.74 281.936H1004.82C1004.82 280.984 1005.04 280.158 1005.47 279.457C1005.9 278.757 1006.5 278.214 1007.28 277.831C1008.06 277.447 1008.95 277.256 1009.96 277.256C1011.01 277.256 1011.91 277.44 1012.68 277.81C1013.46 278.174 1014.06 278.681 1014.5 279.33C1014.93 279.978 1015.14 280.722 1015.14 281.56C1015.14 282.109 1015.03 282.651 1014.81 283.186C1014.6 283.721 1014.22 284.315 1013.67 284.969C1013.12 285.617 1012.35 286.396 1011.35 287.305L1009.23 289.386V289.486H1015.33V292H1004.96ZM1022.99 292.199C1021.89 292.199 1020.92 292.021 1020.07 291.666C1019.22 291.306 1018.56 290.816 1018.07 290.196C1017.59 289.576 1017.35 288.873 1017.35 288.087C1017.35 287.481 1017.49 286.924 1017.76 286.418C1018.04 285.906 1018.42 285.482 1018.9 285.146C1019.38 284.805 1019.91 284.588 1020.5 284.493V284.393C1019.73 284.237 1019.1 283.861 1018.61 283.264C1018.13 282.663 1017.89 281.964 1017.89 281.169C1017.89 280.416 1018.11 279.746 1018.55 279.159C1018.99 278.567 1019.59 278.103 1020.36 277.767C1021.13 277.426 1022.01 277.256 1022.99 277.256C1023.97 277.256 1024.84 277.426 1025.61 277.767C1026.38 278.108 1026.99 278.574 1027.43 279.166C1027.87 279.753 1028.09 280.421 1028.09 281.169C1028.09 281.969 1027.84 282.668 1027.36 283.264C1026.87 283.861 1026.24 284.237 1025.48 284.393V284.493C1026.06 284.588 1026.59 284.805 1027.06 285.146C1027.54 285.482 1027.92 285.906 1028.2 286.418C1028.49 286.924 1028.63 287.481 1028.63 288.087C1028.63 288.873 1028.39 289.576 1027.9 290.196C1027.42 290.816 1026.75 291.306 1025.9 291.666C1025.05 292.021 1024.08 292.199 1022.99 292.199ZM1022.99 289.94C1023.48 289.94 1023.9 289.853 1024.27 289.678C1024.63 289.498 1024.92 289.251 1025.12 288.939C1025.33 288.622 1025.43 288.257 1025.43 287.845C1025.43 287.424 1025.32 287.052 1025.11 286.73C1024.9 286.403 1024.61 286.148 1024.25 285.963C1023.88 285.774 1023.46 285.679 1022.99 285.679C1022.52 285.679 1022.1 285.774 1021.73 285.963C1021.36 286.148 1021.07 286.403 1020.86 286.73C1020.65 287.052 1020.54 287.424 1020.54 287.845C1020.54 288.257 1020.65 288.622 1020.85 288.939C1021.05 289.251 1021.34 289.498 1021.71 289.678C1022.08 289.853 1022.5 289.94 1022.99 289.94ZM1022.99 283.442C1023.4 283.442 1023.76 283.359 1024.07 283.193C1024.39 283.027 1024.64 282.798 1024.82 282.504C1025 282.211 1025.09 281.872 1025.09 281.489C1025.09 281.11 1025 280.778 1024.82 280.494C1024.64 280.205 1024.39 279.981 1024.08 279.82C1023.77 279.654 1023.4 279.571 1022.99 279.571C1022.58 279.571 1022.21 279.654 1021.89 279.82C1021.58 279.981 1021.33 280.205 1021.15 280.494C1020.97 280.778 1020.89 281.11 1020.89 281.489C1020.89 281.872 1020.98 282.211 1021.16 282.504C1021.34 282.798 1021.58 283.027 1021.9 283.193C1022.22 283.359 1022.58 283.442 1022.99 283.442Z" fill="white" fill-opacity="0.8"/>
<path d="M768 320H724V356H768V320Z" fill="#0D0D0D"/>
<path d="M768 332H724V356H768V332Z" fill="#0D0D0D"/>
</g>
<path d="M103.057 347V338.273H106.108C106.716 338.273 107.217 338.378 107.612 338.588C108.007 338.795 108.301 339.075 108.494 339.428C108.688 339.777 108.784 340.165 108.784 340.591C108.784 340.966 108.717 341.276 108.584 341.52C108.453 341.764 108.28 341.957 108.064 342.099C107.851 342.241 107.619 342.347 107.369 342.415V342.5C107.636 342.517 107.905 342.611 108.175 342.781C108.445 342.952 108.67 343.196 108.852 343.514C109.034 343.832 109.125 344.222 109.125 344.682C109.125 345.119 109.026 345.513 108.827 345.862C108.628 346.212 108.314 346.489 107.885 346.693C107.456 346.898 106.898 347 106.21 347H103.057ZM104.114 346.062H106.21C106.901 346.062 107.391 345.929 107.68 345.662C107.973 345.392 108.119 345.065 108.119 344.682C108.119 344.386 108.044 344.114 107.893 343.864C107.743 343.611 107.528 343.409 107.25 343.259C106.972 343.105 106.642 343.028 106.261 343.028H104.114V346.062ZM104.114 342.108H106.074C106.392 342.108 106.679 342.045 106.935 341.92C107.193 341.795 107.398 341.619 107.548 341.392C107.702 341.165 107.778 340.898 107.778 340.591C107.778 340.207 107.645 339.882 107.378 339.615C107.111 339.345 106.688 339.21 106.108 339.21H104.114V342.108ZM114.85 344.324V340.455H115.856V347H114.85V345.892H114.782C114.629 346.224 114.39 346.507 114.066 346.74C113.742 346.97 113.333 347.085 112.839 347.085C112.43 347.085 112.066 346.996 111.748 346.817C111.43 346.635 111.18 346.362 110.998 345.999C110.816 345.632 110.725 345.17 110.725 344.614V340.455H111.731V344.545C111.731 345.023 111.864 345.403 112.131 345.688C112.401 345.972 112.745 346.114 113.163 346.114C113.413 346.114 113.667 346.05 113.925 345.922C114.187 345.794 114.406 345.598 114.582 345.334C114.761 345.07 114.85 344.733 114.85 344.324ZM118.703 343.062V347H117.698V340.455H118.669V341.477H118.755C118.908 341.145 119.141 340.878 119.453 340.676C119.766 340.472 120.169 340.369 120.664 340.369C121.107 340.369 121.495 340.46 121.827 340.642C122.159 340.821 122.418 341.094 122.603 341.46C122.787 341.824 122.88 342.284 122.88 342.841V347H121.874V342.909C121.874 342.395 121.74 341.994 121.473 341.707C121.206 341.418 120.84 341.273 120.374 341.273C120.053 341.273 119.766 341.342 119.513 341.482C119.263 341.621 119.066 341.824 118.921 342.091C118.776 342.358 118.703 342.682 118.703 343.062Z" fill="#1DB483"/>
</g>
<defs>
<radialGradient id="paint0_radial_44_2" cx="0" cy="0" r="1" gradientUnits="userSpaceOnUse" gradientTransform="translate(0 200) scale(240 160)">
<stop stop-color="#1DB483" stop-opacity="0.2"/>
<stop offset="1" stop-color="#1DB483" stop-opacity="0"/>
</radialGradient>
<linearGradient id="paint1_linear_44_2" x1="0" y1="0" x2="1280" y2="0" gradientUnits="userSpaceOnUse">
<stop offset="0.5" stop-color="#0A0A0A" stop-opacity="0"/>
<stop offset="1" stop-color="#0A0A0A" stop-opacity="0.6"/>
</linearGradient>
<clipPath id="clip0_44_2">
<rect width="1280" height="400" fill="white"/>
</clipPath>
</defs>
</svg>
